<?xml version="1.0" encoding="UTF-8"?>
<!DOCTYPE svg PUBLIC "-//W3C//DTD SVG 1.1//EN" "http://www.w3.org/Graphics/SVG/1.1/DTD/svg11.dtd">
<!-- Creator: CorelDRAW 2019 (64 Bit) -->
<svg xmlns="http://www.w3.org/2000/svg" xml:space="preserve" width="112.184mm" height="20.532mm" version="1.1" style="shape-rendering:geometricPrecision; text-rendering:geometricPrecision; image-rendering:optimizeQuality; fill-rule:evenodd; clip-rule:evenodd"
viewBox="0 0 11218.4 2053.2"
 xmlns:xlink="http://www.w3.org/1999/xlink"
 xmlns:xodm="http://www.corel.com/coreldraw/odm/2003">
 <defs>
  <style type="text/css">
   <![CDATA[
    .fil1 {fill:black}
    .fil0 {fill:black;fill-rule:nonzero}
   ]]>
  </style>
 </defs>
 <g id="Camada_x0020_1">
  <metadata id="CorelCorpID_0Corel-Layer"/>
  <path class="fil0" d="M1027.71 1088.35l177.36 10.59c-8.38,77.3 -36.99,136.57 -85.83,177.83 -48.85,41.26 -108.91,61.96 -180.2,61.96 -85.84,0 -155.07,-28.45 -207.71,-85.2 -52.8,-56.74 -79.19,-135.31 -79.19,-235.21 0,-99.11 24.97,-179.09 74.92,-239.95 49.95,-60.86 119.66,-91.21 209.13,-91.21 83.62,0 147.96,23.08 192.85,69.24 44.73,46.16 70.18,107.49 76.03,183.68l-181.15 9.8c0,-42.21 -8.06,-72.56 -24.18,-91.37 -16.13,-18.81 -35.25,-28.13 -57.07,-28.13 -60.86,0 -91.36,61.49 -91.36,184.62 0,68.92 7.9,115.87 23.71,140.53 15.96,24.82 38.25,37.15 66.86,37.15 51.06,0 79.67,-34.78 85.83,-104.33zm522.27 250.38c-88.99,0 -161.54,-29.56 -217.66,-88.52 -56.12,-58.96 -84.09,-137.83 -84.09,-236.63 0,-94.37 26.87,-172.46 80.45,-234.1 53.59,-61.49 128.04,-92.32 223.2,-92.32 88.05,0 159.97,29.09 215.45,87.1 55.49,58.01 83.15,135.47 83.15,232.37 0,100.37 -27.98,180.83 -83.94,241.37 -55.95,60.54 -128.04,90.73 -216.56,90.73zm-0.79 -143.21c32.88,0 56.59,-14.38 70.98,-42.99 14.38,-28.62 21.65,-80.94 21.65,-156.97 0,-110.18 -29.71,-165.18 -88.99,-165.18 -64.02,0 -95.95,62.75 -95.95,188.42 0,117.76 30.82,176.72 92.31,176.72zm910.5 -498.87l-196.33 632.6 -197.74 0 -205.81 -632.6 204.38 0 100.54 343.96c6.79,20.39 12.96,40.31 18.18,60.07l117.13 -404.03 159.65 0zm252.13 0l0 632.6 -194.43 0 0 -632.6 194.43 0zm109.86 632.6l0 -632.6 244.54 0c106.38,0 185.89,31.45 238.68,94.52 52.8,63.07 79.2,135.95 79.2,218.78 0,94.52 -28.3,171.34 -85.04,230.62 -56.59,59.12 -130.26,88.68 -220.67,88.68l-256.71 0zm194.43 -145.11l50.58 0c32.09,0 59.28,-15.65 81.25,-46.95 22.13,-31.3 33.19,-73.82 33.19,-127.72 0,-46.16 -9.8,-85.99 -29.4,-119.5 -19.6,-33.35 -48.05,-50.11 -85.04,-50.11l-50.58 0 0 344.28zm642.24 -166.92l0 145.11 -234.26 0 0 -145.11 234.26 0zm410.51 171.66l148.91 0 0 140.37 -486.55 0 0 -140.37 156.49 0 0 -301.44c-59.43,26.24 -105.91,41.73 -139.42,46.31l0 -142.26c89.95,-19.44 150.96,-54.22 183.05,-104.33l137.52 0 0 501.72zm201.54 -18.97l162.18 -25.6c6.8,38.57 26.87,57.85 60.23,57.85 26.39,0 46.63,-12.33 60.54,-37.15 14.07,-24.66 21.02,-58.64 21.02,-101.95 0,-4.9 -0.16,-11.23 -0.47,-18.97 -27.82,40.94 -68.76,61.33 -122.98,61.33 -57.07,0 -104.33,-18.81 -141.64,-56.43 -37.3,-37.78 -55.95,-85.83 -55.95,-144.16 0,-63.86 21.97,-116.19 65.91,-156.81 43.95,-40.62 102.91,-60.86 176.89,-60.86 85.04,0 149.37,28.14 192.84,84.57 43.47,56.27 65.13,130.57 65.13,222.88 0,101.64 -22.61,184.31 -67.66,248.33 -45.2,63.86 -112.38,95.79 -201.7,95.79 -58.48,0 -106.69,-15.01 -144.79,-45.05 -38.09,-30.03 -61.17,-71.29 -69.55,-123.77zm223.67 -199.17c18.65,0 35.09,-6.48 49.16,-19.6 14.07,-13.12 21.18,-31.77 21.18,-55.8 0,-24.5 -6.48,-43.78 -19.28,-57.85 -12.96,-14.23 -29.09,-21.34 -48.69,-21.34 -18.49,0 -34.14,6.64 -47.1,19.92 -13.12,13.27 -19.6,33.19 -19.6,59.75 0,23.39 6,41.73 18.17,55.01 12.02,13.27 27.51,19.91 46.16,19.91z"/>
  <path class="fil0" d="M5832.24 1344.42l0 -678.13 141.32 0c49.64,0 86.31,2.53 110.02,7.59 23.55,5.22 43.94,13.91 60.86,26.24 21.65,15.97 38.41,36.67 50.26,61.81 11.86,25.13 17.87,52.79 17.87,82.67 0,35.88 -8.54,65.76 -25.77,89.78 -17.07,24.19 -42.05,40.94 -74.77,50.59 39.99,6.16 71.77,24.18 95,53.9 23.24,29.87 34.94,67.49 34.94,112.86 0,27.19 -4.9,53.11 -14.86,77.77 -9.8,24.66 -23.55,45.84 -41.1,63.55 -19.13,18.81 -42.84,32.09 -70.82,39.83 -28.13,7.75 -75.4,11.54 -141.63,11.54l-141.32 0zm78.72 -317.72l0 247.54 62.6 0c42.84,0 73.82,-1.74 92.79,-5.06 18.97,-3.48 34.14,-9.33 45.68,-17.71 13.75,-9.8 24.66,-23.55 32.56,-41.25 8.07,-17.55 12.02,-36.99 12.02,-58.33 0,-24.82 -4.74,-46.32 -14.39,-64.49 -9.48,-18.18 -23.39,-32.41 -41.57,-42.68 -10.75,-6.48 -23.24,-11.07 -37.46,-13.91 -14.07,-2.69 -36.2,-4.11 -66.08,-4.11l-23.55 0 -62.6 0zm0 -290.22l0 226.67 62.6 0c57.38,0 97.85,-8.38 121.24,-24.97 23.55,-16.6 35.25,-44.74 35.25,-84.26 0,-43.47 -10.9,-73.82 -32.72,-91.36 -21.65,-17.39 -63.07,-26.08 -123.77,-26.08l-62.6 0zm489.4 397.39c0,44.73 15.01,82.67 44.89,113.65 30.03,31.14 66.39,46.63 108.91,46.63 42.36,0 78.4,-15.49 108.12,-46.63 29.56,-30.98 44.42,-68.92 44.42,-113.65 0,-44.74 -14.86,-82.67 -44.42,-113.65 -29.72,-31.15 -65.76,-46.64 -108.12,-46.64 -42.84,0 -79.19,15.49 -109.07,46.64 -29.87,30.98 -44.73,68.91 -44.73,113.65zm-76.83 -0.32c0,-31.14 5.69,-60.54 17.08,-88.2 11.54,-27.51 28.13,-52.17 50.1,-73.82 21.98,-21.66 46.79,-38.1 74.61,-49.32 27.82,-11.22 57.38,-16.91 89,-16.91 30.82,0 60.07,5.69 87.73,17.07 27.66,11.54 52.64,28.14 75.24,50.11 21.97,21.34 38.57,45.68 50.11,73.34 11.38,27.67 17.07,56.91 17.07,87.73 0,30.98 -5.69,60.07 -17.07,87.42 -11.54,27.34 -28.14,51.69 -50.11,72.87 -22.6,22.29 -47.74,39.2 -75.72,51.05 -27.97,11.7 -57.06,17.55 -87.25,17.55 -31.3,0 -60.86,-5.85 -88.84,-17.39 -27.98,-11.54 -52.79,-28.13 -74.77,-49.79 -21.97,-22.29 -38.56,-46.95 -50.1,-74.14 -11.39,-27.18 -17.08,-56.27 -17.08,-87.57zm898.01 3.16c0,-47.89 -13.12,-86.46 -39.2,-115.55 -26.08,-29.24 -60.07,-43.78 -102.12,-43.78 -43.47,0 -77.45,13.43 -101.79,40.31 -24.5,26.87 -36.68,64.33 -36.68,112.54 0,51.22 12.33,90.74 36.83,118.4 24.51,27.82 59.44,41.73 104.49,41.73 43.15,0 77.14,-13.44 101.64,-40.47 24.5,-27.03 36.83,-64.81 36.83,-113.18zm70.18 -216.24l0 423.95 -70.18 0 0 -76.82c-16.91,30.82 -38.73,54.37 -65.12,70.5 -26.4,16.28 -55.96,24.34 -88.68,24.34 -60.7,0 -109.86,-20.87 -147.01,-62.75 -37.15,-41.89 -55.8,-97.22 -55.8,-166.14 0,-69.71 18.02,-125.19 54.22,-166.45 36.04,-41.25 84.41,-61.8 144.95,-61.8 35.41,0 66.23,7.9 92.32,23.87 26.08,15.96 47.26,39.83 63.22,71.29l0 -79.99 72.08 0zm100.22 352.66l62.13 -41.57c11.69,22.44 26.39,39.2 44.41,50.42 17.87,11.22 39.05,16.92 63.39,16.92 23.71,0 43,-5.85 57.7,-17.55 14.7,-11.7 21.97,-27.19 21.97,-46.32 0,-14.7 -5.06,-27.03 -15.02,-36.98 -10.11,-9.8 -27.34,-18.97 -51.69,-27.19l-12.01 -4.27c-103.06,-35.41 -154.6,-79.98 -154.6,-133.41 0,-37.62 13.91,-68.45 41.58,-92.16 27.82,-23.87 63.86,-35.72 108.28,-35.72 36.83,0 68.28,7.27 94.52,21.97 26.24,14.7 45.05,35.41 56.44,62.28l-58.65 36.2c-8.69,-19.45 -21.5,-34.46 -38.25,-44.89 -16.92,-10.6 -36.36,-15.81 -58.65,-15.81 -21.34,0 -38.73,6 -52.16,17.86 -13.44,11.86 -20.08,27.03 -20.08,45.68 0,25.93 28.14,47.74 84.26,65.29 10.59,3.47 18.96,6 25.13,7.9 45.84,14.86 77.93,31.77 95.95,50.74 18.02,18.97 27.03,43.94 27.03,75.24 0,40 -14.23,72.56 -42.84,97.38 -28.45,24.81 -65.76,37.3 -111.76,37.3 -39.51,0 -73.02,-7.43 -100.69,-22.29 -27.5,-14.7 -49.79,-37.14 -66.39,-67.02zm710.7 71.29l0 -423.95 71.13 0 0 65.44c18.18,-27.18 40.15,-47.42 65.76,-60.7 25.61,-13.27 55.32,-19.91 88.83,-19.91 50.11,0 89.16,13.27 117.13,39.83 28.14,26.56 42.21,63.55 42.21,110.81l0 288.48 -73.98 0 0 -249.6c0,-42.99 -9.01,-74.76 -27.03,-95.63 -18.18,-20.86 -46,-31.3 -83.62,-31.3 -21.65,0 -41.41,3.96 -59.12,11.86 -17.7,7.9 -32.4,18.97 -44.26,33.51 -8.85,11.06 -15.33,23.87 -19.12,37.94 -3.95,14.22 -5.85,38.88 -5.85,74.13l0 219.09 -72.08 0zm571.11 -210.55c0,44.73 15.01,82.67 44.89,113.65 30.03,31.14 66.39,46.63 108.91,46.63 42.36,0 78.4,-15.49 108.12,-46.63 29.56,-30.98 44.42,-68.92 44.42,-113.65 0,-44.74 -14.86,-82.67 -44.42,-113.65 -29.72,-31.15 -65.76,-46.64 -108.12,-46.64 -42.84,0 -79.19,15.49 -109.07,46.64 -29.87,30.98 -44.73,68.91 -44.73,113.65zm-76.83 -0.32c0,-31.14 5.69,-60.54 17.08,-88.2 11.54,-27.51 28.13,-52.17 50.1,-73.82 21.98,-21.66 46.79,-38.1 74.61,-49.32 27.82,-11.22 57.38,-16.91 89,-16.91 30.82,0 60.07,5.69 87.73,17.07 27.66,11.54 52.64,28.14 75.24,50.11 21.97,21.34 38.57,45.68 50.11,73.34 11.38,27.67 17.07,56.91 17.07,87.73 0,30.98 -5.69,60.07 -17.07,87.42 -11.54,27.34 -28.14,51.69 -50.11,72.87 -22.6,22.29 -47.74,39.2 -75.72,51.05 -27.97,11.7 -57.06,17.55 -87.25,17.55 -31.3,0 -60.86,-5.85 -88.84,-17.39 -27.98,-11.54 -52.79,-28.13 -74.77,-49.79 -21.97,-22.29 -38.56,-46.95 -50.1,-74.14 -11.39,-27.18 -17.08,-56.27 -17.08,-87.57zm585.03 -153.33l-77.77 0 0 -59.75 77.77 0 0 -170.72 73.98 0 0 170.72 77.77 0 0 59.75 -77.77 0 0 364.2 -73.98 0 0 -364.2zm237.9 364.2l0 -423.95 73.03 0 0 423.95 -73.03 0zm-29.4 -490.34l94.53 -161.23 93.26 0 -132.15 161.23 -55.64 0zm580.6 389.81l0 84.41c-19.13,11.38 -40.63,19.91 -64.65,25.6 -23.87,5.69 -49.79,8.54 -77.62,8.54 -65.44,0 -118.08,-20.71 -158.07,-62.28 -39.99,-41.57 -60.06,-96.11 -60.06,-163.76 0,-67.97 20.7,-123.46 62.12,-166.45 41.41,-43.16 94.37,-64.65 158.86,-64.65 23.39,0 46.31,2.53 68.76,7.43 22.45,4.9 43.47,12.17 63.23,21.81l0 77.93c-18.49,-12.01 -37.62,-21.18 -57.38,-27.5 -19.76,-6.33 -39.83,-9.49 -60.23,-9.49 -47.58,0 -85.83,14.86 -114.44,44.74 -28.77,29.71 -43.15,69.39 -43.15,118.71 0,43.62 14.38,79.98 43.31,109.38 28.93,29.25 65.12,43.95 108.59,43.95 21.98,0 43.47,-3.96 64.5,-11.7 21.02,-7.75 42.99,-19.92 66.23,-36.67zm87.41 -527.65c0,-14.38 5.22,-26.87 15.49,-37.3 10.43,-10.28 23.08,-15.49 37.94,-15.49 14.38,0 26.87,5.21 37.3,15.8 10.28,10.44 15.49,23.08 15.49,37.94 0,14.54 -5.05,27.03 -15.33,37.15 -10.12,10.27 -22.76,15.33 -37.46,15.33 -14.86,0 -27.51,-5.06 -37.94,-15.33 -10.27,-10.12 -15.49,-22.92 -15.49,-38.1zm17.07 628.18l0 -423.95 73.03 0 0 423.95 -73.03 0zm550.25 -207.71c0,-47.89 -13.12,-86.46 -39.2,-115.55 -26.08,-29.24 -60.07,-43.78 -102.12,-43.78 -43.47,0 -77.45,13.43 -101.79,40.31 -24.5,26.87 -36.68,64.33 -36.68,112.54 0,51.22 12.33,90.74 36.83,118.4 24.51,27.82 59.44,41.73 104.49,41.73 43.15,0 77.14,-13.44 101.64,-40.47 24.5,-27.03 36.83,-64.81 36.83,-113.18zm70.18 -216.24l0 423.95 -70.18 0 0 -76.82c-16.91,30.82 -38.73,54.37 -65.12,70.5 -26.4,16.28 -55.96,24.34 -88.68,24.34 -60.7,0 -109.86,-20.87 -147.01,-62.75 -37.15,-41.89 -55.8,-97.22 -55.8,-166.14 0,-69.71 18.02,-125.19 54.22,-166.45 36.04,-41.25 84.41,-61.8 144.95,-61.8 35.41,0 66.23,7.9 92.32,23.87 26.08,15.96 47.26,39.83 63.22,71.29l0 -79.99 72.08 0zm100.22 352.66l62.13 -41.57c11.69,22.44 26.39,39.2 44.41,50.42 17.87,11.22 39.05,16.92 63.39,16.92 23.71,0 43,-5.85 57.7,-17.55 14.7,-11.7 21.97,-27.19 21.97,-46.32 0,-14.7 -5.06,-27.03 -15.02,-36.98 -10.11,-9.8 -27.34,-18.97 -51.69,-27.19l-12.01 -4.27c-103.06,-35.41 -154.6,-79.98 -154.6,-133.41 0,-37.62 13.91,-68.45 41.58,-92.16 27.82,-23.87 63.86,-35.72 108.28,-35.72 36.83,0 68.28,7.27 94.52,21.97 26.24,14.7 45.05,35.41 56.44,62.28l-58.65 36.2c-8.69,-19.45 -21.5,-34.46 -38.25,-44.89 -16.92,-10.6 -36.36,-15.81 -58.65,-15.81 -21.34,0 -38.73,6 -52.16,17.86 -13.44,11.86 -20.08,27.03 -20.08,45.68 0,25.93 28.14,47.74 84.26,65.29 10.59,3.47 18.96,6 25.13,7.9 45.84,14.86 77.93,31.77 95.95,50.74 18.02,18.97 27.03,43.94 27.03,75.24 0,40 -14.23,72.56 -42.84,97.38 -28.45,24.81 -65.76,37.3 -111.76,37.3 -39.51,0 -73.02,-7.43 -100.69,-22.29 -27.5,-14.7 -49.79,-37.14 -66.39,-67.02z"/>
  <polygon class="fil1" points="5255.43,1682.6 5332.41,1682.6 5332.41,343.27 5255.43,343.27 "/>
 </g>
</svg>
