<?xml version="1.0" encoding="UTF-8"?>
<!DOCTYPE svg PUBLIC "-//W3C//DTD SVG 1.1//EN" "http://www.w3.org/Graphics/SVG/1.1/DTD/svg11.dtd">
<!-- Creator: CorelDRAW 2019 (64 Bit) -->
<svg xmlns="http://www.w3.org/2000/svg" xml:space="preserve" width="333.118mm" height="82.973mm" version="1.1" style="shape-rendering:geometricPrecision; text-rendering:geometricPrecision; image-rendering:optimizeQuality; fill-rule:evenodd; clip-rule:evenodd"
viewBox="0 0 33311.8 8297.3"
 xmlns:xlink="http://www.w3.org/1999/xlink"
 xmlns:xodm="http://www.corel.com/coreldraw/odm/2003">
 <defs>
  <style type="text/css">
   <![CDATA[
    .fil0 {fill:#FEFAFC}
    .fil20 {fill:#259551;fill-rule:nonzero}
    .fil30 {fill:#282828;fill-rule:nonzero}
    .fil8 {fill:#286F44;fill-rule:nonzero}
    .fil10 {fill:#2E3B30;fill-rule:nonzero}
    .fil21 {fill:#305D3B;fill-rule:nonzero}
    .fil33 {fill:#322F2E;fill-rule:nonzero}
    .fil29 {fill:#323132;fill-rule:nonzero}
    .fil42 {fill:#422F2C;fill-rule:nonzero}
    .fil38 {fill:#44302D;fill-rule:nonzero}
    .fil26 {fill:#49352D;fill-rule:nonzero}
    .fil22 {fill:#4C372E;fill-rule:nonzero}
    .fil52 {fill:#4E332D;fill-rule:nonzero}
    .fil25 {fill:#50332D;fill-rule:nonzero}
    .fil40 {fill:#51322D;fill-rule:nonzero}
    .fil15 {fill:#53342E;fill-rule:nonzero}
    .fil54 {fill:#557E90;fill-rule:nonzero}
    .fil37 {fill:#9E7A57;fill-rule:nonzero}
    .fil35 {fill:#AF9175;fill-rule:nonzero}
    .fil53 {fill:#B2C3CC;fill-rule:nonzero}
    .fil41 {fill:#B5755F;fill-rule:nonzero}
    .fil36 {fill:#B7816A;fill-rule:nonzero}
    .fil49 {fill:#BFCCD3;fill-rule:nonzero}
    .fil27 {fill:#D2AC7B;fill-rule:nonzero}
    .fil13 {fill:#D2AC7E;fill-rule:nonzero}
    .fil24 {fill:#DBBB90;fill-rule:nonzero}
    .fil11 {fill:#DBBB92;fill-rule:nonzero}
    .fil28 {fill:#DCBB8D;fill-rule:nonzero}
    .fil34 {fill:#E5845E;fill-rule:nonzero}
    .fil51 {fill:#E5E8EA;fill-rule:nonzero}
    .fil16 {fill:#E7CFAA;fill-rule:nonzero}
    .fil23 {fill:#E97E37;fill-rule:nonzero}
    .fil39 {fill:#EA9683;fill-rule:nonzero}
    .fil1 {fill:#ECA685;fill-rule:nonzero}
    .fil46 {fill:#ED8136;fill-rule:nonzero}
    .fil31 {fill:#EFB699;fill-rule:nonzero}
    .fil12 {fill:#F0DAB5;fill-rule:nonzero}
    .fil9 {fill:#F16136;fill-rule:nonzero}
    .fil32 {fill:#F1B491;fill-rule:nonzero}
    .fil50 {fill:#F1F3F4;fill-rule:nonzero}
    .fil48 {fill:#F37835;fill-rule:nonzero}
    .fil47 {fill:#F47D35;fill-rule:nonzero}
    .fil18 {fill:#F58834;fill-rule:nonzero}
    .fil17 {fill:#F79634;fill-rule:nonzero}
    .fil43 {fill:#FAA840;fill-rule:nonzero}
    .fil7 {fill:#FBB247;fill-rule:nonzero}
    .fil6 {fill:#FBE4B5;fill-rule:nonzero}
    .fil44 {fill:#FBE9CB;fill-rule:nonzero}
    .fil5 {fill:#FBEDCC;fill-rule:nonzero}
    .fil2 {fill:#FBF0D7;fill-rule:nonzero}
    .fil45 {fill:#FEFEFE;fill-rule:nonzero}
    .fil19 {fill:#FFE0B1;fill-rule:nonzero}
    .fil4 {fill:#FFF3D8;fill-rule:nonzero}
    .fil3 {fill:#FFF6E3;fill-rule:nonzero}
    .fil14 {fill:#FFF9F0;fill-rule:nonzero}
   ]]>
  </style>
 </defs>
 <g id="Camada_x0020_1">
  <metadata id="CorelCorpID_0Corel-Layer"/>
  <g id="_2597079249920">
   <rect class="fil0" transform="matrix(0.429626 -0 0.548356 0.915805 11470.4 905.062)" width="8607.79" height="7055.56"/>
   <path class="fil1" d="M14843.84 7379.9c-1199.91,0 -2172.62,-78.73 -2172.62,-175.86 0,-97.11 972.71,-175.84 2172.62,-175.84 144.78,0 286.32,1.15 423.19,3.34l91.53 183.07c21.51,43 64.32,71.24 112.33,74.12 12.8,0.76 26.35,1.26 39.99,1.26 83.57,0 171.05,-18.5 115.11,-106.38 -32.27,-50.73 -66.07,-101.44 -96.79,-146.48 864.06,23.24 1487.26,89.18 1487.26,166.91 0,97.13 -972.72,175.86 -2172.62,175.86z"/>
   <path class="fil2" d="M18600.71 7381.7c-722.04,0 -1307.38,-62.38 -1307.38,-139.32 0,-38 142.95,-72.47 374.71,-97.61 10.03,37.98 23.05,75.17 38.88,111.36 2.01,4.58 5.5,6.48 9.14,6.48 7.97,0 16.68,-9.05 12.33,-19.01 -12.62,-28.83 -23.35,-58.47 -32.08,-88.71 43.16,16.43 89.57,26.26 137.99,28.3l0 0.02c0.34,0 0.62,0.01 0.95,0.03 0,0 0.02,0 0.03,0 0.15,0 0.28,0.02 0.43,0.02 0.05,0 0.09,0 0.12,0 0.26,0.01 0.51,0.01 0.78,0.04 0.04,0 0.08,0 0.13,0 0.12,0.01 0.25,0.01 0.37,0.01 0.08,0 0.17,0 0.26,0.01 0.13,0 0.21,0 0.36,0 0.15,0.02 0.32,0.02 0.46,0.02 0.11,0.02 0.24,0.02 0.32,0.02 0.1,0 0.2,0 0.3,0.02 0.12,0 0.22,0 0.31,0 0.19,0.01 0.35,0.01 0.52,0.01 0.09,0 0.21,0.02 0.31,0.02 0.08,0 0.2,0 0.28,0 0.02,0 0,0 0.02,0 12.72,36.2 30.73,70.16 56.85,99.48 2.35,2.61 5.02,3.82 7.65,3.95l1.11 0c8.91,-0.48 16.76,-12.6 8.81,-21.53 -22.24,-24.93 -37.79,-52.56 -49.08,-81.89 33.63,-0.91 66.34,-5.59 97.69,-13.63l128.97 0c18.01,21.55 33.61,44.89 44.79,71.5 2.42,5.71 7.6,8.18 12.64,8.18 7.73,0.01 15.08,-5.85 11.32,-14.8 -10.01,-23.84 -23.21,-45.14 -38.35,-64.88l273.86 0 528.53 0c1.3,11.4 1.86,22.97 1.69,34.68 -0.11,8 6.05,12.01 12.26,12.01 6.21,0 12.47,-3.99 12.59,-12.01 0.16,-11.67 -0.35,-23.26 -1.53,-34.68l56.81 0 33.49 0c1.23,14.46 1.54,29.02 0.95,43.56 -0.33,8 5.72,11.97 11.91,11.97 6.22,0 12.6,-3.99 12.93,-11.97 0.6,-14.54 0.31,-29.1 -0.81,-43.56l69.36 0c1.27,0 2.53,-0.01 3.8,-0.03 22.43,-0.28 44.25,-3.06 65.2,-8.08 -4.72,28.99 -13.53,57.38 -26.28,84.1 -4.59,9.61 3.49,18.44 11.41,18.9l1.26 0c3.46,-0.2 6.75,-2.1 8.79,-6.38 15.81,-33.13 26.23,-68.25 30.85,-104.16 22.18,-7.54 43.17,-17.66 62.62,-29.98 369.74,24.6 615.77,68.36 615.77,118.22 0,76.94 -585.34,139.32 -1307.4,139.32z"/>
   <polygon class="fil3" points="17291.54,2649.09 19723.81,2649.09 19723.81,2506.23 17291.54,2506.23 "/>
   <polygon class="fil3" points="19466.67,2506.23 19613.09,2506.23 19613.09,1566.89 19466.67,1566.89 "/>
   <polygon class="fil4" points="19320.23,2506.23 19466.67,2506.23 19466.67,1566.89 19320.23,1566.89 "/>
   <polygon class="fil3" points="19173.78,2506.23 19320.23,2506.23 19320.23,1566.89 19173.78,1566.89 "/>
   <polygon class="fil3" points="18563.63,2451.52 18700.96,2502.4 19027.32,1621.59 18890.01,1570.7 "/>
   <polygon class="fil4" points="19027.34,2506.23 19173.79,2506.23 19173.79,1566.89 19027.34,1566.89 "/>
   <path class="fil3" d="M17910.08 2192.06c0,156.67 127.01,283.7 283.68,283.7 156.68,0 283.7,-127.03 283.7,-283.7 0,-156.68 -127.02,-283.69 -283.7,-283.69 -156.67,0 -283.68,127.01 -283.68,283.69z"/>
   <path class="fil5" d="M18193.76 2418.75c-125.21,0 -226.69,-101.48 -226.69,-226.69l0 0c0,-125.21 101.48,-226.7 226.69,-226.7 125.21,0 226.7,101.49 226.71,226.7 -0.01,125.21 -101.5,226.69 -226.71,226.69zm-201.85 -226.69c0,55.78 22.57,106.17 59.12,142.73 36.57,36.55 86.96,59.12 142.73,59.12 55.79,0 106.17,-22.57 142.75,-59.12 36.55,-36.56 59.1,-86.95 59.12,-142.73 -0.02,-55.79 -22.57,-106.17 -59.12,-142.73 -36.58,-36.55 -86.96,-59.12 -142.75,-59.12 -55.77,0 -106.16,22.57 -142.73,59.12 -36.55,36.56 -59.12,86.94 -59.12,142.73z"/>
   <path class="fil3" d="M18052.88 2506.23l281.79 0c13.81,0 25.03,-11.2 25.03,-25.03l0 -10.93c0,-13.81 -11.22,-25 -25.03,-25l-281.79 0c-13.82,0 -25.04,11.19 -25.04,25l0 10.93c0,13.83 11.22,25.03 25.04,25.03z"/>
   <path class="fil5" d="M18198.71 2198.7c1.03,-1.39 1.64,-3.1 1.64,-4.95 0,-4.57 -3.71,-8.28 -8.28,-8.28l-6.59 0 0 -101.57c0,-4.56 3.71,-8.28 8.28,-8.28 4.57,0 8.28,3.72 8.28,8.28l0 108.16c0,2.72 -1.31,5.12 -3.33,6.64z"/>
   <path class="fil5" d="M18192.07 2202.03l-108.14 0c-4.58,0 -8.29,-3.71 -8.29,-8.28 0,-4.57 3.71,-8.28 8.29,-8.28l101.55 0 0 6.59c0,4.57 3.71,8.28 8.28,8.28 1.85,0 3.58,-0.61 4.95,-1.64 -1.5,2.02 -3.92,3.33 -6.64,3.33z"/>
   <path class="fil6" d="M18193.76 2200.34c-4.57,0 -8.28,-3.71 -8.28,-8.28l0 -6.59 6.59 0c4.57,0 8.28,3.71 8.28,8.28 0,1.85 -0.61,3.56 -1.64,4.95 -1.37,1.03 -3.1,1.64 -4.95,1.64z"/>
   <polygon class="fil7" points="14193.4,2816.83 14193.4,2791.99 12909.86,2791.99 12909.86,986.75 14168.56,986.75 14168.56,2816.83 14193.4,2816.83 14193.4,2791.99 14193.4,2816.83 14218.24,2816.83 14218.24,937.08 12860.18,937.08 12860.18,2841.67 14218.24,2841.67 14218.24,2816.83 "/>
   <polygon class="fil7" points="13000.95,2652.47 14077.46,2652.47 14077.46,1126.28 13000.95,1126.28 "/>
   <path class="fil8" d="M13530.92 1367.69c0,205.79 -166.83,372.64 -372.63,372.64 -56.23,0 -109.53,-12.48 -157.34,-34.78l0 -579.28 441.18 0c55.36,65.04 88.79,149.31 88.79,241.42z"/>
   <path class="fil8" d="M13530.92 1367.69l-4.14 0c0,101.76 -41.22,193.87 -107.92,260.56 -66.7,66.7 -158.8,107.94 -260.57,107.94 -56.29,0 -109.62,-12.62 -157.34,-35.19l0 9.12c47.88,22.04 101.17,34.35 157.34,34.35 208.09,0 376.78,-168.7 376.78,-376.78l-4.15 0zm-94.21 -241.42c56.12,64.68 90.07,149.06 90.07,241.42l8.29 0c0,-91.87 -32.9,-176.04 -87.52,-241.42l-10.84 0z"/>
   <path class="fil9" d="M13332.19 2502.17c0,-36.6 29.66,-66.26 66.24,-66.26 36.59,0 66.25,29.66 66.25,66.26 0,36.58 -29.66,66.24 -66.25,66.24 -36.58,0 -66.24,-29.66 -66.24,-66.24z"/>
   <path class="fil9" d="M13332.19 2502.17l4.14 0c0.06,-34.31 27.8,-62.05 62.1,-62.12 34.3,0.07 62.04,27.81 62.11,62.12 0,17.15 -6.94,32.65 -18.19,43.9 -11.25,11.24 -26.75,18.2 -43.92,18.2 -34.3,-0.07 -62.04,-27.81 -62.1,-62.1l-8.28 0c0,38.86 31.51,70.38 70.38,70.38 38.88,0 70.39,-31.52 70.39,-70.38 0,-38.89 -31.51,-70.4 -70.39,-70.4 -38.87,0 -70.38,31.51 -70.38,70.4l4.14 0z"/>
   <path class="fil9" d="M13249.38 2502.17l4.14 0c0,-40.05 16.21,-76.25 42.44,-102.48 26.24,-26.23 62.45,-42.44 102.47,-42.44 40.04,0 76.23,16.21 102.47,42.44 26.23,26.23 42.45,62.43 42.45,102.48 0,40.02 -16.22,76.23 -42.45,102.46 -26.24,26.23 -62.43,42.44 -102.47,42.44 -40.02,0 -76.23,-16.21 -102.47,-42.44 -26.23,-26.23 -42.44,-62.44 -42.44,-102.46l-8.28 0c0,74.45 53.12,136.48 123.52,150.3l59.35 0c70.4,-13.82 123.52,-75.85 123.52,-150.3 0,-84.63 -68.59,-153.2 -153.2,-153.2 -84.6,0 -153.19,68.57 -153.19,153.2l4.14 0z"/>
   <path class="fil9" d="M13166.57 2502.17l8.28 0c0,-61.77 25.01,-117.61 65.49,-158.1 40.48,-40.48 96.32,-65.48 158.09,-65.5 61.77,0.02 117.62,25.02 158.1,65.5 40.48,40.49 65.48,96.33 65.49,158.1 -0.01,57.88 -21.98,110.59 -58.06,150.3l21.74 0c33.07,-41.15 52.88,-93.41 52.88,-150.3 -0.01,-132.65 -107.52,-240.14 -240.15,-240.16 -132.63,0.02 -240.13,107.51 -240.14,240.16l8.28 0zm66.34 150.3c-36.09,-39.71 -58.06,-92.42 -58.06,-150.3l-16.56 0c0,56.89 19.8,109.15 52.87,150.3l21.75 0z"/>
   <polygon class="fil8" points="13829.04,2402.79 14060.9,2402.79 14060.9,2170.93 13829.04,2170.93 "/>
   <polygon class="fil8" points="14060.9,2402.79 14060.9,2398.65 13833.18,2398.65 13833.18,2175.07 14056.76,2175.07 14056.76,2402.79 14060.9,2402.79 14060.9,2398.65 14060.9,2402.79 14065.04,2402.79 14065.04,2166.79 13824.9,2166.79 13824.9,2406.93 14065.04,2406.93 14065.04,2402.79 "/>
   <polygon class="fil8" points="14077.46,2510.45 13721.38,2510.45 13721.38,2063.27 14077.46,2063.27 14077.46,2046.71 13704.83,2046.71 13704.83,2527.01 14077.46,2527.01 "/>
   <polygon class="fil9" points="13398.43,1441.12 13281.7,1747.57 13515.17,1747.57 "/>
   <polygon class="fil9" points="13398.43,1343.17 13390.7,1340.22 13213.71,1804.83 13583.15,1804.83 13398.43,1319.91 13390.7,1340.22 13398.43,1343.17 13390.7,1346.11 13559.12,1788.27 13237.75,1788.27 13406.18,1346.11 13398.43,1343.17 13390.7,1346.11 "/>
   <polygon class="fil8" points="13819.95,1540.16 13777.73,1467.05 13862.16,1467.05 "/>
   <polygon class="fil8" points="13919.32,1606.42 13877.1,1533.29 13961.54,1533.29 "/>
   <polygon class="fil8" points="13844.79,1680.94 13802.58,1607.83 13887,1607.83 "/>
   <polygon class="fil8" points="13106.33,2350.74 13073.8,2423.87 13138.85,2423.87 "/>
   <polygon class="fil8" points="13182.88,2284.5 13150.36,2357.63 13215.39,2357.63 "/>
   <polygon class="fil8" points="13125.47,2209.98 13092.95,2283.09 13157.98,2283.09 "/>
   <path class="fil8" d="M17842.47 3084.58l0 2898.29c0,13.71 11.13,24.84 24.84,24.84 13.73,0 24.84,-11.13 24.84,-24.84l0 -2898.29c0,-13.71 -11.11,-24.84 -24.84,-24.84 -13.71,0 -24.84,11.13 -24.84,24.84z"/>
   <path class="fil8" d="M17826.21 3188.92c4.37,-3.96 8.83,-7.81 13.38,-11.56 2.27,-1.87 4.59,-3.69 6.9,-5.51l-0.03 0.03 1.64 -1.26 3.76 -2.78c9.52,-6.97 19.39,-13.45 29.56,-19.41 5.59,-3.29 8.08,-11.34 4.45,-16.99 -3.64,-5.65 -11.01,-7.98 -16.99,-4.45 -21.54,12.63 -41.75,27.59 -60.25,44.36 -4.81,4.39 -4.76,13.18 0,17.57 5.17,4.74 12.43,4.69 17.58,0z"/>
   <path class="fil8" d="M17834.6 3140.93c-10.18,5.53 -20.38,11.06 -30.57,16.6 -5.73,3.11 -8.01,11.47 -4.45,17 3.72,5.8 10.88,7.77 16.99,4.46 10.18,-5.55 20.37,-11.08 30.59,-16.62 5.69,-3.11 7.99,-11.47 4.43,-16.98 -3.72,-5.82 -10.87,-7.79 -16.99,-4.46z"/>
   <path class="fil8" d="M17878.2 3320.01c70.4,54.52 123.55,129.01 151.17,213.76 4.92,15.12 28.93,8.65 23.96,-6.6 -28.88,-88.6 -83.84,-167.63 -157.57,-224.73 -12.49,-9.67 -30.19,7.79 -17.56,17.57z"/>
   <path class="fil8" d="M17964.16 3439.35l0.41 -3.88 -0.47 3.31c0.88,-6.44 2.57,-12.7 5.09,-18.71l-1.26 2.98c2.29,-5.38 5.18,-10.45 8.68,-15.13 1.79,-2.44 2,-6.81 1.24,-9.59 -0.79,-2.87 -3.02,-6 -5.7,-7.41 -2.88,-1.54 -6.38,-2.28 -9.59,-1.25 -3.24,1.04 -5.38,2.96 -7.41,5.71 -9.48,12.75 -14.59,28.2 -15.84,43.97 -0.25,3.01 1.58,6.69 3.65,8.77 2.15,2.16 5.69,3.78 8.77,3.65 7.17,-0.33 11.88,-5.47 12.43,-12.42z"/>
   <path class="fil8" d="M17830.4 3159.54c-133.75,38.39 -246.98,131.44 -330.98,242.36 -84.02,110.94 -141.42,239.5 -192.24,369.03 -50.81,129.54 -95.94,261.71 -158.72,385.87 -26.56,52.57 -56.78,104.25 -98.88,145.4 105.69,-25.73 202.53,-81.57 285.47,-151.97 82.93,-70.38 152.66,-155.12 215.5,-243.9 23.76,-33.57 46.66,-67.87 65.74,-104.3 104.58,-199.62 89.82,-452.03 222.05,-634.51l-7.94 -7.98z"/>
   <path class="fil8" d="M17827.1 3147.56c-378.91,111.54 -492.12,535.24 -624,858.07 -40.84,99.95 -84.61,210.24 -162.31,287.78 -8.93,8.91 0.18,23.75 12.08,20.76 191.89,-47.94 342.97,-184.28 460.99,-337.34 60.76,-78.8 116.51,-160.71 150.8,-254.68 31.51,-86.36 48.79,-176.9 70.32,-266.05 23.98,-99.37 54.01,-198.21 114.1,-282.31 9.3,-13.02 -12.22,-25.44 -21.45,-12.52 -104.59,146.41 -118.41,330.84 -168.57,498.59 -27.74,92.77 -71.3,173.54 -127.66,252.02 -58.52,81.51 -123.44,159.21 -199.62,224.85 -82.73,71.29 -179.13,126.9 -285.51,153.5 4.02,6.92 8.06,13.83 12.09,20.75 65.31,-65.2 105.25,-151.86 141.87,-235.29 38.77,-88.33 71.67,-179.05 106.33,-269.02 67.27,-174.63 144.57,-352.91 280.58,-485.81 69.64,-68.03 152.79,-121.75 246.55,-149.34 15.3,-4.51 8.8,-28.5 -6.59,-23.96z"/>
   <path class="fil8" d="M18008.3 3442.84c-17.7,189.43 15.36,383.37 94.83,556.24 59.12,128.61 142.56,244.22 218.91,363.42 76.36,119.2 147.01,245.3 175.97,383.86 7.72,-153.97 11.92,-308.15 12.62,-462.31 0.19,-41.73 0.11,-83.59 -5.29,-124.96 -5.21,-39.75 -15.3,-78.71 -27.6,-116.87 -39.5,-122.33 -102.31,-237.09 -184.07,-336.27 -84.03,-101.91 -186.8,-186.45 -289.82,-269.07l4.45 5.96z"/>
   <path class="fil8" d="M17995.88 3442.84c-16.47,183.32 13.02,369.43 85.85,538.49 74.31,172.54 193.72,319.53 287.06,481.41 51.9,89.99 95.35,184.94 117.24,286.92 3.05,14.21 23.72,10.17 24.4,-3.3 5.33,-107.24 9.04,-214.55 11.01,-321.93 1.82,-98.44 9.56,-201.02 -8.91,-298.3 -33.85,-178.52 -131.59,-347.58 -254.42,-479.46 -74.81,-80.34 -160.02,-150.01 -245.49,-218.57 -12.35,-9.9 -30.05,7.56 -17.57,17.57 145.34,116.59 286.63,238.32 381.7,401.14 45.4,77.7 81.55,161.91 103.67,249.25 25.04,98.83 18.22,202.58 16.61,303.6 -1.86,115.64 -5.72,231.21 -11.44,346.7 8.13,-1.1 16.26,-2.2 24.39,-3.29 -38.27,-178.5 -140.74,-331.97 -239.5,-482.17 -50.62,-77.04 -100.89,-154.64 -141.92,-237.32 -41.31,-83.28 -71.64,-171.75 -90.37,-262.8 -21.51,-104.51 -27.02,-211.72 -17.46,-317.94 1.43,-15.91 -23.42,-15.81 -24.85,0z"/>
   <path class="fil8" d="M17929.01 4604.84c52.38,79.41 125.98,144.67 211.08,187.21 63.31,31.63 132.04,50.6 199.12,73.19 67.07,22.57 134.07,49.63 188.74,94.57 -45.19,-62.45 -91.8,-123.87 -139.77,-184.21 -13,-16.32 -26.13,-32.61 -41.19,-47.05 -14.47,-13.86 -30.58,-25.92 -47.33,-36.93 -53.69,-35.34 -114.11,-60.41 -177.04,-73.5 -64.65,-13.44 -131.18,-14.25 -197.22,-14.21l3.61 0.93z"/>
   <path class="fil8" d="M17918.3 4611.12c62.23,93.08 149.72,165.2 252.87,208.72 115.94,48.92 247.65,67.92 348,148.76 9.95,8.04 28.5,-2.61 19.51,-15.03 -38.84,-53.61 -78.66,-106.49 -119.48,-158.58 -38.84,-49.55 -76.82,-92.82 -131.41,-125.5 -49.89,-29.85 -104.94,-51.5 -161.86,-63.36 -65.91,-13.71 -133.49,-14.64 -200.53,-14.64 -15.98,0 -16.01,24.84 0,24.84 63.48,0 127.55,0.48 190.05,12.97 56.35,11.29 110.47,32.13 159.79,61.64 51.62,30.9 87.24,71.74 123.94,118.47 40.37,51.45 79.67,103.73 118.05,156.68 6.49,-5.01 13,-10.04 19.5,-15.06 -94.18,-75.87 -212.95,-99.84 -323.77,-141.17 -111.39,-41.54 -206.81,-111.97 -273.23,-211.29 -8.83,-13.22 -30.36,-0.8 -21.43,12.55z"/>
   <path class="fil8" d="M18006.78 3999.2c-22.82,60.43 -29.43,126.89 -18.93,190.62 7.79,47.43 24.73,92.78 39,138.65 14.31,45.9 26.1,93.53 23.14,141.49 16.36,-49.73 31.59,-99.81 45.65,-150.22 3.83,-13.64 7.57,-27.36 9.51,-41.38 1.87,-13.48 2.07,-27.16 1.47,-40.76 -1.95,-43.6 -12.2,-86.81 -30.06,-126.63 -18.35,-40.91 -44.39,-77.82 -70.71,-114.12l0.93 2.35z"/>
   <path class="fil8" d="M17994.81 3995.89c-27.19,74.31 -30.86,153.84 -12.01,230.61 19.89,81.04 58.67,158.17 54.76,243.46 -0.66,14.49 20.18,16.18 24.4,3.31 14.28,-43.52 27.75,-87.31 40.34,-131.34 12.12,-42.48 19.84,-81.66 15.07,-126.07 -9.26,-86.1 -51.02,-156.48 -100.78,-225.29 -9.28,-12.83 -30.86,-0.44 -21.47,12.54 48.37,66.85 90.75,135.81 98.12,219.98 3.81,43.61 -6.16,82.1 -18.15,123.55 -11.64,40.23 -24.04,80.23 -37.09,120.02 8.13,1.1 16.26,2.2 24.41,3.3 3.66,-79.77 -28.39,-152.88 -49.8,-228.1 -22.77,-80.02 -22.59,-160.82 6.14,-239.36 5.52,-15.04 -18.48,-21.53 -23.94,-6.61z"/>
   <path class="fil8" d="M17693.23 4781.87c-98.44,60.1 -141.49,162.06 -177.96,271.48 -36.46,109.39 -49.17,225.01 -68.79,338.65 -30.27,175.39 -77.42,347.87 -140.63,514.25 132.05,-77.22 242.15,-191.52 314.4,-326.36 72.23,-134.83 106.38,-289.8 97.54,-442.52 -6.79,-117.36 -38.32,-234.96 -19.81,-351.06l-4.75 -4.44z"/>
   <path class="fil8" d="M17686.95 4771.14c-118.67,74.16 -170.69,217.09 -203.31,346.74 -21.13,83.99 -32.21,170.02 -46.5,255.31 -14.27,85.2 -32.39,169.72 -54.48,253.25 -24.76,93.67 -54.52,185.91 -88.78,276.51 -3.96,10.43 9.48,19.19 18.24,14.01 283.26,-167.19 445.99,-487.33 415.37,-814.79 -9.69,-103.79 -33.2,-208.14 -17.52,-312.57 2.33,-15.63 -21.59,-22.37 -23.96,-6.59 -13.09,87.19 -0.76,173.74 10.07,260.45 10.68,85.66 14.82,170.93 2.61,256.7 -22.9,160.76 -93.18,312.89 -201.62,433.81 -57.15,63.72 -123.8,118.04 -197.48,161.55 6.08,4.68 12.17,9.35 18.25,14.02 58.81,-155.5 104.02,-315.99 134.38,-479.45 29.22,-157.26 44.42,-316.73 109.19,-464.87 30.34,-69.38 72.95,-131.91 138.08,-172.62 13.53,-8.46 1.07,-29.97 -12.54,-21.46z"/>
   <path class="fil8" d="M17879.38 4618.72c-104.58,175.92 -109.26,394.94 -72.75,596.33 36.54,201.36 110.56,394.07 154.48,593.96 51.18,-201.48 102.7,-405.42 103.73,-613.28 1.04,-207.9 -53.59,-423.46 -191.68,-578.85l6.22 1.84z"/>
   <path class="fil8" d="M17868.66 4612.44c-166.42,283.83 -80.89,624.01 4.86,918.57 27.16,93.25 54.58,186.45 75.61,281.29 2.67,12.07 21,11.61 23.95,0 81.61,-321.22 166.23,-670.86 37.74,-992.04 -31,-77.54 -73.69,-149.37 -128.89,-212.15 -10.56,-12.01 -28.08,5.59 -17.55,17.57 214.09,243.46 211.32,591.36 152.4,891.5 -19.04,96.95 -43.32,192.78 -67.65,288.53 7.98,0 15.97,0 23.95,0 -68.74,-310.11 -214.79,-618.86 -165.02,-943.44 12.81,-83.53 39.23,-164.26 82.03,-237.27 8.12,-13.83 -13.34,-26.35 -21.43,-12.56z"/>
   <path class="fil8" d="M17940.21 3437.56c-131.19,103.05 -217.99,253.68 -274.17,410.76 -56.18,157.07 -84.48,322.45 -118.84,485.68 -34.33,163.25 -75.7,327.23 -155.17,473.9 64.85,-25.76 112.54,-81.21 156.49,-135.39 74.92,-92.36 146.96,-187.03 215.98,-283.86 62.58,-87.77 123.49,-178.92 155.83,-281.73 26.4,-83.97 32.79,-172.82 36.24,-260.8 5.2,-132.6 4.11,-265.46 -3.26,-397.96l-13.1 -10.6z"/>
   <path class="fil8" d="M17931.43 3428.78c-316.38,251.19 -337.46,686.19 -429.65,1047.83 -28.62,112.3 -65.52,222.68 -120.48,325.02 -4.57,8.49 3.31,22.7 14.03,18.25 87.5,-36.34 144.63,-116.14 201.66,-188.06 64.46,-81.28 126.84,-164.21 186.77,-248.88 57.09,-80.67 111.73,-164.66 143.96,-258.77 33.22,-97 38.75,-200.75 42.16,-302.4 4.16,-124.53 2.64,-249.21 -4.15,-373.61 -0.88,-15.92 -25.72,-16.02 -24.84,0 5.76,105.47 7.75,211.12 5.66,316.75 -2,100.48 -3.74,203.27 -27.79,301.36 -23.41,95.5 -72.2,181.04 -127.01,261.77 -56.29,82.95 -116.54,163.43 -178.06,242.57 -34.02,43.75 -68,87.87 -104.44,129.67 -33.95,38.93 -72.14,75.55 -120.53,95.63 4.69,6.08 9.36,12.17 14.04,18.27 190.59,-354.95 156.13,-784.88 353.69,-1136.53 49.6,-88.29 112.99,-168.15 192.53,-231.32 12.52,-9.93 -5.16,-27.39 -17.55,-17.55z"/>
   <path class="fil8" d="M17873.05 3099.71c18.98,72.98 84.23,124.88 152.21,157.52 67.96,32.65 142.24,51.7 207.65,89.25 84.95,48.8 151.64,128.67 184.45,220.98 20.75,-101.24 12.47,-209.44 -30.74,-303.32 -43.22,-93.86 -122.59,-172.09 -219.94,-206.8 -97.34,-34.72 -211.72,-23.04 -295.98,36.78l2.35 5.59z"/>
   <path class="fil8" d="M17861.08 3103.03c34.17,122.43 162.48,169.09 269.07,210.27 62.44,24.13 121.47,52.75 170.71,98.97 46.75,43.85 82.58,98.29 104.54,158.5 3.81,10.48 21.36,13.06 23.95,0 25.39,-128.33 7.7,-267.07 -68.18,-376.03 -68.3,-98.04 -177,-165.64 -297.95,-169.09 -70.43,-1.98 -140.76,17.56 -198.79,57.73 -13.05,9.05 -0.65,30.59 12.53,21.47 95.8,-66.36 223.93,-71.2 326.82,-17.87 101.7,52.71 172.38,151.59 199.01,261.95 17.02,70.53 16.64,144.25 2.61,215.23 7.99,0 15.95,0 23.95,0 -42.29,-116 -129.69,-205.08 -242.33,-254.33 -109.43,-47.84 -265.03,-80.95 -301.98,-213.41 -4.3,-15.39 -28.26,-8.85 -23.96,6.61z"/>
   <path class="fil8" d="M17859.68 3063.96c-13.5,-69.97 -59.16,-130.43 -114.4,-175.44 -55.25,-45 -120.02,-76.49 -184.14,-107.58 -64.1,-31.06 -128.87,-62.56 -184.11,-107.56 23.69,76.66 47.69,154.03 87.45,223.73 39.76,69.71 97.11,132.09 171.12,163.1 76.59,32.13 164.74,27.91 244.16,3.65l-20.08 0.1z"/>
   <path class="fil8" d="M17871.63 3060.65c-48.09,-231.98 -327.24,-268.92 -485.82,-396.06 -8.91,-7.12 -24.78,-0.86 -20.77,12.09 37.11,119.96 77.55,246.68 172.8,334.22 95.54,87.84 224.08,100.9 345.24,64.93 15.28,-4.54 8.77,-28.52 -6.61,-23.94 -117.57,34.9 -240.61,21.16 -330.48,-67.52 -85.66,-84.51 -122.36,-202.3 -156.99,-314.3 -6.92,4.04 -13.85,8.07 -20.75,12.09 85.09,68.23 187.69,105.36 282.02,158.09 89.71,50.14 175.56,121.58 197.42,227.01 3.24,15.64 27.19,9.02 23.94,-6.61z"/>
   <path class="fil8" d="M17859.81 3033.21c-30.14,-93.11 -24.96,-194.79 -1.74,-289.88 23.18,-95.07 63.62,-184.92 103.83,-274.15 -9.18,70.18 4.18,141.11 16.51,210.83 12.37,69.68 23.76,141.29 10.8,210.88 -12.99,69.59 -55.18,137.84 -121.39,162.87l-8.01 -20.55z"/>
   <path class="fil8" d="M17871.8 3029.91c-59.75,-190.66 23.31,-382.44 100.83,-554.47 -7.71,-2.09 -15.43,-4.17 -23.15,-6.26 -13.21,111.14 25.87,218.01 32.23,328.08 5.35,93 -21.2,206.06 -117.2,244.52 -14.65,5.87 -8.25,29.9 6.61,23.95 92.35,-37 133.42,-135.27 136.09,-229.31 3.53,-123.81 -47.66,-243.02 -32.89,-367.24 1.44,-12.05 -18.2,-17.22 -23.13,-6.28 -80.3,178.21 -165.21,376.19 -103.34,573.6 4.76,15.22 28.73,8.73 23.95,-6.59z"/>
   <path class="fil8" d="M17708.83 4785.4c45.82,-57.15 98.5,-108.82 157.02,-152.9 5.34,-4.01 8.15,-10.75 4.46,-17.01 -3.1,-5.25 -11.6,-8.51 -17,-4.44 -60.29,45.42 -114.81,97.84 -162.04,156.8 -4.22,5.26 -5.05,12.38 0,17.55 4.29,4.39 13.38,5.23 17.56,0z"/>
   <path class="fil8" d="M17938.6 4593.7c-6.77,-1.38 -13.56,-2.75 -20.2,-4.71 -1.51,-0.45 -3.03,-0.94 -4.52,-1.45l-2.99 -1.08 0.04 0.05c-3.13,-1.34 -6.19,-2.9 -9.08,-4.73l-1.48 -0.99c-0.09,-0.06 -2.49,-1.73 -0.95,-0.62 1.51,1.07 -0.56,-0.5 -0.86,-0.73l-1.67 -1.52 -3.17 -3.23 -1.45 -1.73c0.29,-0.05 1.42,2.01 0.35,0.37l-2.38 -3.79 -0.99 -1.96c-0.78,-1.44 0.96,2.8 0.07,0.12l-1.16 -3.8 -0.43 -2.16 0.21 1.55 -0.13 -1.77c-0.38,-6.47 -5.43,-12.74 -12.42,-12.42 -6.41,0.28 -12.83,5.46 -12.42,12.42 0.98,16.86 10.63,30.59 24.11,40.19 13.08,9.32 29.46,12.82 44.92,15.93 6.35,1.29 13.72,-1.82 15.28,-8.66 1.41,-6.19 -1.87,-13.91 -8.68,-15.28z"/>
   <path class="fil10" d="M17875.46 2960.95c-4.36,0 -8.48,-6.24 -4.77,-10.94 82.78,-105.37 -4.19,-255 65.59,-366.61 1.3,-2.07 3.18,-2.93 5.07,-2.93 4.32,0 8.63,4.45 5.66,9.19 -70.29,112.41 17.36,261.05 -67.54,369.14 -1.2,1.51 -2.62,2.15 -4.01,2.15z"/>
   <path class="fil10" d="M17810.38 3013.55c-0.59,0 -1.21,-0.09 -1.88,-0.28 -143.71,-42.81 -312.19,-101.05 -364.14,-258.28 -1.52,-4.6 2.25,-7.6 6.03,-7.6 2.47,0 4.95,1.31 5.94,4.31 50.41,152.53 216.46,208.18 355.49,249.58 6.98,2.09 4.85,12.27 -1.44,12.27z"/>
   <path class="fil10" d="M18387.3 3447.21c-2.48,-0.01 -4.98,-1.31 -5.98,-4.29 -59.21,-175.72 -221.71,-308.98 -405.79,-332.1 -7.55,-0.94 -7.9,-12.47 -0.88,-12.47 0.28,0 0.57,0.02 0.88,0.05 189.88,23.85 356.61,159.74 417.76,341.23 1.55,4.59 -2.21,7.58 -5.99,7.58z"/>
   <path class="fil10" d="M17204.39 4155.66c-4.87,0 -9.16,-6.24 -4.64,-10.52 58.57,-55.57 110.62,-117.62 154.42,-185.48 81.41,-126.13 123.62,-268.83 176.6,-407.9 46.75,-122.68 106.5,-244.5 207.52,-331.69 1.31,-1.11 2.73,-1.59 4.12,-1.59 5.02,0 9.42,6.28 4.67,10.38 -59.22,51.09 -104.78,114.84 -141.21,183.69 -67.9,128.43 -103.4,270.43 -161.08,403.23 -55.38,127.51 -135.38,242.45 -236.26,338.14 -1.29,1.23 -2.74,1.74 -4.14,1.74z"/>
   <path class="fil10" d="M17525.85 4582.29c-4.42,0 -8.74,-4.44 -5.58,-9.06 45.06,-65.56 81.07,-136.62 110.52,-210.43 102.1,-255.64 131.72,-537.67 269.71,-779.21 1.22,-2.14 3.08,-3.02 4.96,-3.02 4.21,0 8.5,4.48 5.77,9.29 -40.61,71.08 -72.42,146.53 -98.99,223.88 -88.16,256.9 -124.31,537.38 -281.22,765.76 -1.36,1.96 -3.28,2.79 -5.17,2.79z"/>
   <path class="fil10" d="M18434.43 4419.93c-3.09,0 -6.39,-1.99 -6.72,-5.96 -5.85,-69.89 -16.38,-139.29 -31.82,-207.72 -54.06,-239.97 -166.06,-465.85 -324.82,-653.76 -3.91,-4.62 0.25,-10.85 4.71,-10.85 1.41,0 2.84,0.61 4.07,2.07 45.22,53.51 86.9,109.91 124.46,169.06 133.64,210.55 215.02,452.76 235.82,701.2 0.33,3.99 -2.58,5.96 -5.7,5.96z"/>
   <path class="fil10" d="M18066.21 4333.15c-3.11,0 -6.42,-1.98 -6.82,-5.94 -7.88,-79.13 -19.09,-157.85 -33.63,-236.05 -0.88,-4.7 3.1,-7.77 6.72,-7.77 2.42,0 4.67,1.34 5.25,4.48 14.74,79.27 26.1,159.12 34.08,239.34 0.4,3.97 -2.5,5.94 -5.6,5.94z"/>
   <path class="fil10" d="M18366.22 4817.59c-1.04,0 -2.15,-0.36 -3.28,-1.21 -95.93,-71.55 -203.92,-125.08 -319.02,-157.91 -7.05,-2.01 -4.88,-12.24 1.46,-12.24 0.58,0 1.19,0.08 1.84,0.28 116.06,33.08 225.25,86.99 321.98,159.16 5.23,3.91 1.94,11.92 -2.98,11.92z"/>
   <path class="fil10" d="M17433.22 5677.96c-4.31,-0.01 -8.6,-4.47 -5.68,-9.22 72.21,-117.64 106.08,-252.92 123.52,-388.74 8.47,-66.02 11.04,-132.53 18.68,-198.62 6.8,-58.84 20.19,-117.25 55.46,-165.98 1.39,-1.92 3.31,-2.7 5.2,-2.7 4.49,0 8.82,4.42 5.53,8.97 -40.23,55.6 -51,123.44 -56.8,190.26 -5.53,63.79 -9.81,127.53 -18.73,190.98 -18.32,130.2 -52.86,259.25 -122.15,372.1 -1.28,2.07 -3.16,2.95 -5.03,2.95z"/>
   <path class="fil10" d="M17958.77 5463.82c-3.1,0 -6.16,-2 -6.08,-5.99 4.91,-234.36 -14.67,-468.67 -58.52,-698.93 -0.89,-4.72 3.08,-7.78 6.71,-7.78 2.41,0 4.67,1.36 5.26,4.47 44.07,231.35 63.91,466.79 58.97,702.24 -0.08,3.99 -3.23,5.99 -6.34,5.99z"/>
   <path class="fil11" d="M17853.27 7183.61c-243.94,0 -441.65,-197.75 -441.65,-441.65l0 -759.09 883.29 0 0 759.09c0,243.9 -197.74,441.65 -441.64,441.65z"/>
   <path class="fil12" d="M17840.23 7183.41c-0.08,0 -0.2,0 -0.28,0 0.08,0 0.2,0 0.28,0zm-0.59 -0.02c-0.17,0 -0.33,0 -0.52,-0.01 0.19,0.01 0.33,0.01 0.52,0.01zm-0.83 -0.01c-0.1,-0.02 -0.2,-0.02 -0.3,-0.02 0.1,0 0.2,0 0.3,0.02zm-0.62 -0.04c-0.14,0 -0.31,0 -0.46,-0.02 0.15,0.02 0.32,0.02 0.46,0.02zm-0.82 -0.02c-0.09,-0.01 -0.18,-0.01 -0.26,-0.01 0.08,0 0.17,0 0.26,0.01zm-0.63 -0.02c-0.05,0 -0.09,0 -0.13,0 0.04,0 0.1,0 0.13,0zm-0.91 -0.04c-0.03,0 -0.07,0 -0.12,0 0.05,0 0.07,0 0.12,0zm-0.55 -0.02c-0.01,0 -0.03,0 -0.03,0l0.03 0zm-0.98 -0.03l0 -0.02 0 0.02z"/>
   <path class="fil13" d="M17865.59 7183.42l0 0c-41.25,-107.21 -25.5,-237.31 -70.77,-343.49 -10.94,-25.7 -26.18,-53.92 -53.24,-65.46 -6.9,-2.95 -13.89,-4.31 -20.75,-4.31 -19.09,0 -37.16,10.5 -49.28,26.43 -19.75,25.99 -21.75,62.29 -24.74,93.62 -3.74,39.1 -4.17,78.53 -1.46,117.73 3.18,45.7 10.67,90.76 22.16,134.79 -64.88,-30.13 -121.22,-75.56 -164.4,-131.66 -8.84,-23.6 -13.26,-48.82 -12.4,-74.19 169.79,-124.98 318.29,-278.61 438.9,-451.67 10.61,60.64 -1.69,123.46 -15.11,182.63 -24.69,108.82 -53.3,226.59 12.51,327.11 10.13,15.48 21.69,29.88 34.1,43.62 -29.32,35.72 -46.89,81.41 -46.89,131.22l49.06 0c-31.35,8.04 -64.06,12.72 -97.69,13.63zm-25.34 -0.01l-0.02 0c-0.08,0 -0.2,0 -0.28,0 -0.11,0 -0.2,-0.02 -0.31,-0.02 -0.19,0 -0.33,0 -0.52,-0.01 -0.09,0 -0.19,0 -0.31,0 -0.1,-0.02 -0.2,-0.02 -0.3,-0.02 -0.1,0 -0.2,0 -0.32,-0.02 -0.14,0 -0.31,0 -0.46,-0.02 -0.13,0 -0.24,0 -0.36,0 -0.09,-0.01 -0.18,-0.01 -0.26,-0.01 -0.12,0 -0.24,0 -0.37,-0.01 -0.03,0 -0.09,0 -0.13,0 -0.25,-0.03 -0.53,-0.03 -0.78,-0.04 -0.05,0 -0.07,0 -0.12,0 -0.15,0 -0.28,-0.02 -0.43,-0.02l-0.03 0c-0.32,-0.02 -0.63,-0.03 -0.95,-0.03l0 -0.02c-48.42,-2.04 -94.83,-11.89 -137.99,-28.3 -10.77,-37.27 -18.52,-75.41 -23.04,-113.95 -4.02,-34.13 -5.48,-68.59 -4.53,-102.94 0.92,-33.8 1.96,-70.48 11.59,-103.06 4.65,-15.73 13.99,-33.51 30.91,-38.71 2.94,-0.91 5.8,-1.33 8.6,-1.33 13.96,0 25.95,10.37 34.31,21.5 19.66,26.14 29.54,60.89 37.1,92.26 15.38,63.95 17.69,130.04 28.85,194.73 4.68,27.21 11.08,54.16 20.15,80.02l0 0zm137.63 -162.99c-35.07,-39.87 -60.13,-85.52 -65.92,-139.24 -6.48,-60.06 6.54,-120.29 19.97,-178.5 18.31,-79.57 37.06,-166.43 16.39,-244.82 98.7,-146.83 177.51,-306.97 232.59,-474.99l114 0 0 153.83c-0.02,0 0,0 -0.02,0 -137.05,53.9 -226.77,192.74 -211.85,340.94 14.03,139.44 110.65,248.59 159.06,375.82 7.48,19.69 13.7,39.73 18.2,60.11 0,0.03 0,0.03 0,0.04 -7.15,16.95 -15.33,33.37 -24.47,49.17l-114.6 0c-55.63,0 -106.14,21.94 -143.35,57.64zm-511.56 -65.51c-0.05,-0.1 -0.1,-0.18 -0.15,-0.26 0.03,-0.03 0.08,-0.07 0.13,-0.11 0,0.12 0,0.25 0.02,0.37zm808.89 -82.11c0,-0.01 0,-0.01 -0.02,-0.01 -16,-50.65 -40.92,-98.41 -66.21,-144.89 -31.88,-58.64 -66.21,-116.97 -86.24,-181.04 -22.24,-71.09 -22.05,-146.42 5.84,-216.06 30.27,-75.63 91.6,-136.01 166.31,-167.44l0.02 0 0 578.6c0,45.54 -6.9,89.49 -19.7,130.84z"/>
   <path class="fil2" d="M18149.68 7249.47c-5.04,0 -10.22,-2.47 -12.64,-8.18 -11.18,-26.61 -26.78,-49.95 -44.79,-71.5l30.4 0c15.14,19.74 28.34,41.04 38.35,64.88 3.76,8.95 -3.59,14.81 -11.32,14.8z"/>
   <path class="fil14" d="M17411.6 6066.32c-5.43,-33.55 -4.68,-68.5 1.58,-101.88 1.16,-6.28 5.66,-8.98 10.48,-8.98 7.25,0 15.22,6.17 13.46,15.57 -0.72,3.93 -1.39,7.87 -1.95,11.82l-23.57 0 0 83.47z"/>
   <path class="fil3" d="M17558.46 7120.41c-2.7,0 -5.5,-0.86 -8.07,-2.88 -49.64,-39 -80.56,-99.6 -84.07,-162.49 10.88,19.71 23.22,38.49 36.86,56.21 13,34.61 35.49,65.72 64.77,88.72 9.97,7.83 0.89,20.44 -9.49,20.44zm-165.07 -655.64c-6.59,0 -11.76,-6.47 -11.86,-13.06l0 -0.41c0.06,-3.72 1.75,-7.44 5.71,-10.02 7.95,-5.17 16.08,-10.4 24.36,-15.55l0 29.34c-3.99,2.57 -7.91,5.12 -11.8,7.65 -2.21,1.44 -4.38,2.05 -6.41,2.05z"/>
   <path class="fil14" d="M18109.27 5982.85l-28.98 0c20.44,-33.48 47.05,-62.26 85.72,-76.09 1.5,-0.54 2.93,-0.78 4.25,-0.78 11.91,0 15.78,19.92 2.34,24.73 -27.52,9.85 -47.48,29.06 -63.33,52.14zm-435.78 0l-25.17 0c-2.47,-11.52 -4.16,-23.29 -4.99,-35.2 -0.56,-7.98 5.35,-11.96 11.56,-11.96 6.21,0 12.73,4.01 13.28,11.96 0.83,11.95 2.64,23.71 5.32,35.2z"/>
   <path class="fil3" d="M18292.11 6962.78l-24.47 0c-1.25,-16.61 -3.76,-33.01 -7.34,-49.17 5.62,-13.28 10.6,-26.91 14.91,-40.81 3.44,10.92 6.47,21.96 9,33.15 4.29,18.92 6.78,37.88 7.9,56.83z"/>
   <path class="fil13" d="M18260.3 6913.61c0,-0.01 0,-0.01 0,-0.04 5.62,-13.26 10.58,-26.89 14.89,-40.78 0.02,0 0.02,0 0.02,0.01 -4.31,13.9 -9.29,27.53 -14.91,40.81z"/>
   <path class="fil14" d="M18294.91 6163.36l0 -26.66c0.66,-0.26 1.34,-0.53 2.01,-0.78 1.57,-0.61 3.06,-0.87 4.43,-0.87 6.3,0 10.27,5.77 10.5,11.9l0 1.13c-0.18,4.81 -2.73,9.63 -8.34,11.8 -2.88,1.13 -5.75,2.28 -8.6,3.48z"/>
   <path class="fil13" d="M18294.89 6163.36l0 -26.66c0.02,0 0,0 0.02,0l0 26.66 -0.02 0z"/>
   <path class="fil2" d="M17905.86 7286.84l-1.11 0c-2.63,-0.13 -5.3,-1.34 -7.65,-3.95 -26.12,-29.32 -44.13,-63.28 -56.85,-99.48 0.1,0 0.22,0.01 0.32,0.01 0.11,0 0.24,0 0.36,0 0.15,0.02 0.28,0.02 0.43,0.02 0.12,0 0.23,0 0.33,0.01 0.11,0 0.2,0 0.3,0 0.17,0 0.34,0.02 0.5,0.02 0.08,0 0.16,0 0.23,0 0.15,0 0.3,0.02 0.43,0.02 0.1,0 0.16,0 0.25,0 0.16,0 0.33,0.02 0.49,0.02 0.06,0 0.13,0 0.19,0 0.18,0 0.34,0 0.53,0.02 0.06,0 0.14,0 0.21,0 0.18,0 0.35,0 0.51,0 0.04,0 0.07,0 0.1,0.01 0.2,0 0.42,0 0.62,0 0.08,0 0.11,0 0.2,0 0.16,0 0.31,0.02 0.47,0.02 0.07,0 0.1,0 0.17,0 0.2,0 0.4,0 0.59,0 0.07,0 0.12,0 0.19,0.01 0.15,0 0.33,0 0.48,0 0.07,0 0.11,0 0.17,0 0.21,0 0.41,0 0.61,0 0.05,0 0.11,0 0.16,0 0.17,0.02 0.33,0.02 0.52,0.02 0.03,0 0.09,0 0.13,0 0.21,0 0.43,0 0.63,0 0.05,0 0.08,0 0.13,0 0.18,0 0.35,0 0.53,0 0.05,0 0.1,0 0.15,0 0.21,0 0.43,0 0.63,0 0.02,0 0.06,0 0.08,0.02 0.2,0 0.38,0 0.57,0 0.06,0 0.11,0 0.16,0 0.22,0 0.43,0 0.65,0 4.12,0 8.23,-0.07 12.32,-0.19 11.29,29.33 26.84,56.96 49.08,81.89 7.95,8.93 0.1,21.05 -8.81,21.53z"/>
   <path class="fil11" d="M17852.62 7183.61c-0.05,0 -0.1,0 -0.16,0 0.06,0 0.11,0 0.16,0zm-0.73 0c-0.02,-0.02 -0.06,-0.02 -0.08,-0.02 0.03,0 0.06,0 0.08,0.02zm-0.71 -0.02c-0.05,0 -0.1,0 -0.15,0 0.05,0 0.1,0 0.15,0zm-0.68 0c-0.05,0 -0.08,0 -0.13,0 0.05,0 0.08,0 0.13,0zm-0.76 0c-0.04,0 -0.1,0 -0.13,0 0.05,0 0.08,0 0.13,0zm-0.65 -0.02c-0.05,0 -0.11,0 -0.16,0 0.05,0 0.1,0 0.16,0zm-0.77 0c-0.06,0 -0.1,0 -0.17,0 0.07,0 0.11,0 0.17,0zm-0.65 0c-0.07,-0.01 -0.12,-0.01 -0.19,-0.01 0.07,0 0.14,0.01 0.19,0.01zm-0.78 -0.01c-0.07,0 -0.1,0 -0.17,0 0.06,0 0.12,0 0.17,0zm-0.64 -0.02c-0.09,0 -0.12,0 -0.2,0 0.08,0 0.13,0 0.2,0zm-0.82 0c-0.03,-0.01 -0.06,-0.01 -0.1,-0.01 0.04,0 0.07,0 0.1,0.01zm-0.61 -0.01c-0.07,0 -0.15,0 -0.21,0 0.06,0 0.14,0 0.21,0zm-0.74 -0.02c-0.06,0 -0.13,0 -0.19,0 0.07,0 0.12,0 0.19,0zm-0.68 -0.02c-0.09,0 -0.15,0 -0.25,0 0.08,0 0.18,0 0.25,0zm-0.68 -0.02c-0.07,0 -0.15,0 -0.23,0 0.08,0 0.15,0 0.23,0zm-0.73 -0.02c-0.1,0 -0.19,0 -0.3,0 0.11,0 0.2,0 0.3,0zm-0.63 -0.01c-0.15,0 -0.28,0 -0.43,-0.02 0.15,0.02 0.3,0.02 0.43,0.02zm-0.79 -0.02c-0.1,0 -0.22,-0.01 -0.32,-0.01l0 0c0.12,0 0.2,0.01 0.32,0.01z"/>
   <path class="fil12" d="M17853.27 7183.61c-0.22,0 -0.43,0 -0.65,0 0.22,0 0.43,0 0.65,0 4.12,0 8.23,-0.07 12.32,-0.19l0 0c-4.09,0.12 -8.2,0.19 -12.32,0.19zm-0.81 0c-0.19,0 -0.37,0 -0.57,0 0.2,0 0.38,0 0.57,0zm-0.65 -0.02c-0.2,0 -0.42,0 -0.63,0 0.23,0 0.41,0 0.63,0zm-0.78 0c-0.18,0 -0.35,0 -0.53,0 0.18,0 0.35,0 0.53,0zm-0.66 0c-0.2,0 -0.42,0 -0.63,0 0.21,0 0.43,0 0.63,0zm-0.76 0c-0.19,0 -0.35,0 -0.52,-0.02 0.17,0.02 0.33,0.02 0.52,0.02zm-0.68 -0.02c-0.2,0 -0.4,0 -0.61,0 0.21,0 0.41,0 0.61,0zm-0.78 0c-0.15,0 -0.33,0 -0.48,0 0.15,0 0.33,0 0.48,0zm-0.67 -0.01c-0.19,0 -0.39,0 -0.59,0 0.18,0 0.4,0 0.59,0zm-0.76 0c-0.16,0 -0.31,-0.02 -0.47,-0.02 0.15,0 0.32,0.02 0.47,0.02zm-0.67 -0.02c-0.2,0 -0.42,0 -0.62,0 0.22,0 0.42,0 0.62,0zm-0.72 -0.01c-0.16,0 -0.33,0 -0.51,0 0.17,0 0.36,0 0.51,0zm-0.72 0c-0.19,-0.02 -0.35,-0.02 -0.53,-0.02 0.18,0 0.34,0 0.53,0.02zm-0.72 -0.02c-0.16,0 -0.33,-0.02 -0.49,-0.02 0.16,0 0.33,0.02 0.49,0.02zm-0.74 -0.02c-0.13,0 -0.28,-0.02 -0.43,-0.02 0.15,0 0.28,0.02 0.43,0.02zm-0.66 -0.02c-0.16,0 -0.33,-0.02 -0.5,-0.02 0.17,0 0.34,0.02 0.5,0.02zm-0.8 -0.02c-0.1,-0.01 -0.21,-0.01 -0.33,-0.01 0.12,0 0.23,0 0.33,0.01zm-0.76 -0.03c-0.12,0 -0.25,0 -0.36,0 0.11,0 0.24,0 0.36,0z"/>
   <path class="fil13" d="M17853.27 7183.61c-0.22,0 -0.43,0 -0.65,0 -0.05,0 -0.1,0 -0.16,0 -0.19,0 -0.37,0 -0.57,0 -0.02,-0.02 -0.05,-0.02 -0.08,-0.02 -0.22,0 -0.4,0 -0.63,0 -0.05,0 -0.1,0 -0.15,0 -0.18,0 -0.35,0 -0.53,0 -0.05,0 -0.08,0 -0.13,0 -0.2,0 -0.42,0 -0.63,0 -0.05,0 -0.08,0 -0.13,0 -0.19,0 -0.35,0 -0.52,-0.02 -0.06,0 -0.11,0 -0.16,0 -0.2,0 -0.4,0 -0.61,0 -0.06,0 -0.1,0 -0.17,0 -0.15,0 -0.33,0 -0.48,0 -0.05,0 -0.12,-0.01 -0.19,-0.01 -0.19,0 -0.41,0 -0.59,0 -0.05,0 -0.11,0 -0.17,0 -0.15,0 -0.32,-0.02 -0.47,-0.02 -0.07,0 -0.12,0 -0.2,0 -0.2,0 -0.4,0 -0.62,0 -0.03,-0.01 -0.06,-0.01 -0.1,-0.01 -0.15,0 -0.34,0 -0.51,0 -0.07,0 -0.15,0 -0.21,0 -0.19,-0.02 -0.35,-0.02 -0.53,-0.02 -0.07,0 -0.12,0 -0.19,0 -0.16,0 -0.33,-0.02 -0.49,-0.02 -0.07,0 -0.17,0 -0.25,0 -0.15,0 -0.28,-0.02 -0.43,-0.02 -0.08,0 -0.15,0 -0.23,0 -0.16,0 -0.33,-0.02 -0.5,-0.02 -0.1,0 -0.19,0 -0.3,0 -0.1,-0.01 -0.21,-0.01 -0.33,-0.01 -0.13,0 -0.28,0 -0.43,-0.02 -0.12,0 -0.25,0 -0.36,0 -0.12,0 -0.2,-0.01 -0.32,-0.01l0 0c4.31,0.12 8.64,0.18 13,0.18 4.13,0 8.25,-0.05 12.34,-0.17l0 0c-4.09,0.12 -8.2,0.19 -12.32,0.19z"/>
   <path class="fil3" d="M17668.04 7144.77c-0.17,-0.66 -0.35,-1.34 -0.51,-2.02 1.21,0.58 2.41,1.13 3.64,1.69 -1.03,0.1 -2.09,0.22 -3.13,0.33z"/>
   <path class="fil2" d="M17716.06 7262.61c-3.64,0 -7.13,-1.9 -9.14,-6.48 -15.83,-36.19 -28.85,-73.38 -38.88,-111.36 1.04,-0.11 2.1,-0.23 3.13,-0.33 8.25,3.73 16.63,7.22 25.14,10.45 8.73,30.24 19.46,59.88 32.08,88.71 4.35,9.96 -4.36,19.01 -12.33,19.01z"/>
   <path class="fil11" d="M17696.31 7154.89c-8.51,-3.23 -16.89,-6.72 -25.14,-10.45 -1.23,-0.56 -2.43,-1.11 -3.64,-1.69l-0.02 0c9.42,4.38 19.05,8.43 28.8,12.14l0 0z"/>
   <path class="fil15" d="M17411.62 6066.4c0,-0.03 -0.02,-0.05 -0.02,-0.08l0 -83.47 23.57 0 0 0.02 -23.55 0 0 83.53z"/>
   <path class="fil15" d="M17929.61 6485.21c-0.31,-1.76 -0.63,-3.51 -0.98,-5.28 -11.62,-58.69 -47.3,-106.93 -95.93,-140.82 -50.43,-35.14 -109.66,-53.88 -168.84,-68.22 -53.28,-12.9 -109.26,-22.84 -156.55,-52.27 -55.23,-34.37 -85.75,-91.01 -95.69,-152.22l0 -83.53 23.55 0c-7.67,53.44 -0.07,110.16 28.07,156.81 34.51,57.23 95.34,80.13 157.27,95.45 105.16,26 217.93,51.26 288,141.66 19.69,25.42 32.34,52.69 39.81,81.07 -6.14,9.15 -12.4,18.31 -18.71,27.35z"/>
   <path class="fil15" d="M17961.11 7038.57c-12.41,-13.74 -23.97,-28.14 -34.1,-43.62 -65.81,-100.52 -37.2,-218.29 -12.51,-327.11 13.42,-59.17 25.72,-121.99 15.11,-182.63 6.31,-9.04 12.57,-18.2 18.71,-27.35 20.67,78.39 1.92,165.25 -16.39,244.82 -13.43,58.21 -26.45,118.44 -19.97,178.5 5.79,53.72 30.85,99.37 65.92,139.24 -5.94,5.71 -11.56,11.78 -16.77,18.15z"/>
   <path class="fil15" d="M17503.18 7011.25c-13.64,-17.72 -25.98,-36.5 -36.86,-56.21 0,0 0,0 0,-0.01 10.88,19.7 23.22,38.48 36.86,56.2l0 0.02zm-91.58 -556.18l0 -29.34 0.02 0 0 29.32c0,0 -0.02,0 -0.02,0.02z"/>
   <path class="fil15" d="M17503.18 7011.23c-13.64,-17.72 -25.98,-36.5 -36.86,-56.2 0,-0.03 0,-0.09 0,-0.12 10.84,19.67 23.17,38.45 36.79,56.16 0.02,0.04 0.04,0.12 0.07,0.16zm-36.88 -56.69c-0.36,-6.68 -0.41,-13.41 -0.13,-20.13 6.39,-156.6 176.65,-226.53 217.5,-367.09 19.1,-65.75 0.37,-146.11 -71.69,-168.29 -14.22,-4.39 -28.36,-6.33 -42.34,-6.33 -56.61,0 -110.64,31.8 -158.02,62.35l0 -29.32c48.5,-30.18 102.51,-57.76 158.86,-57.76 16.84,0 33.9,2.46 51.07,8.06 63.35,20.65 95.89,81.56 94.17,145.91 -1.96,73.2 -45.33,134.21 -91.53,187.56 -52.03,60.09 -116.1,119.78 -130.76,201.62 -1.53,8.57 -2.44,17.16 -2.72,25.76 -8.1,5.96 -16.23,11.83 -24.41,17.66z"/>
   <path class="fil15" d="M17503.11 7011.07c-13.62,-17.71 -25.95,-36.49 -36.79,-56.16 -0.02,-0.12 -0.02,-0.25 -0.02,-0.37 8.18,-5.83 16.31,-11.7 24.41,-17.66 -0.86,25.37 3.56,50.59 12.4,74.19z"/>
   <path class="fil15" d="M18109.27 5982.87l-29 0 0.02 -0.02 28.98 0 0 0.02zm-435.76 0l-25.19 0c0,-0.02 0,0 0,-0.02l25.17 0 0.02 0.02z"/>
   <path class="fil15" d="M17908.23 6202.71c-33.81,0 -68.25,-9.94 -98.45,-23.51 -80.78,-36.31 -143.05,-110.16 -161.46,-196.33l25.19 0c11.52,49.32 39.36,93.71 77.13,128.06 39.68,36.09 98.47,67.37 154.87,67.37 11.25,0 22.41,-1.26 33.31,-3.96 66.24,-16.43 92.11,-88.98 117.15,-144.45 7.22,-16.02 15.15,-32 24.3,-47.02l29 0c-19.51,28.42 -32.84,62.7 -46.48,92.61 -20.19,44.21 -46.39,91.14 -91.88,113.47 -19.8,9.72 -41.12,13.76 -62.68,13.76z"/>
   <path class="fil15" d="M18260.3 6913.57c-4.5,-20.38 -10.72,-40.42 -18.2,-60.11 -48.41,-127.23 -145.03,-236.38 -159.06,-375.82 -14.92,-148.2 74.8,-287.04 211.85,-340.94l0 26.66c-74.71,31.43 -136.04,91.81 -166.31,167.44 -27.89,69.64 -28.08,144.97 -5.84,216.06 20.03,64.07 54.36,122.4 86.24,181.04 25.29,46.48 50.21,94.24 66.21,144.89 -4.31,13.89 -9.27,27.52 -14.89,40.78z"/>
   <path class="fil15" d="M17696.31 7154.89c-9.75,-3.71 -19.38,-7.76 -28.8,-12.14 0,0 0,0 0,-0.02 9.42,4.4 19.03,8.43 28.8,12.16l0 0z"/>
   <path class="fil15" d="M17853.25 7183.59c-4.36,0 -8.69,-0.06 -13,-0.18 -9.07,-25.86 -15.47,-52.81 -20.15,-80.02 -11.16,-64.69 -13.47,-130.78 -28.85,-194.73 -7.56,-31.37 -17.44,-66.12 -37.1,-92.26 -8.36,-11.13 -20.35,-21.5 -34.31,-21.5 -2.8,0 -5.66,0.42 -8.6,1.33 -16.92,5.2 -26.26,22.98 -30.91,38.71 -9.63,32.58 -10.67,69.26 -11.59,103.06 -0.95,34.35 0.51,68.81 4.53,102.94 4.52,38.54 12.27,76.68 23.04,113.95 -9.77,-3.73 -19.38,-7.76 -28.8,-12.16 -11.49,-44.03 -18.98,-89.09 -22.16,-134.79 -2.71,-39.2 -2.28,-78.63 1.46,-117.73 2.99,-31.33 4.99,-67.63 24.74,-93.62 12.12,-15.93 30.19,-26.43 49.28,-26.43 6.86,0 13.85,1.36 20.75,4.31 27.06,11.54 42.3,39.76 53.24,65.46 45.27,106.18 29.52,236.28 70.77,343.49 -4.09,0.12 -8.21,0.17 -12.34,0.17z"/>
   <path class="fil16" d="M17073.05 2231.67c0,-76.23 61.8,-138.01 138.04,-138.01 76.21,0 138,61.78 138,138.01 0,76.23 -61.79,138.02 -138,138.02 -76.24,0 -138.04,-61.79 -138.04,-138.02z"/>
   <path class="fil17" d="M17257.79 1610.6c-258.2,0 -467.53,209.32 -467.53,467.53l0 139.73 935.05 0 0 -139.73c0,-258.21 -209.31,-467.53 -467.52,-467.53z"/>
   <path class="fil17" d="M17283.06 1643.25c10.75,-16.82 39.51,-59.96 82.01,-103.27 77.95,-79.47 169.97,-126.88 254.58,-155.33 84.58,-28.43 161.33,-37.68 207.35,-41.14l-2.48 -33.02 0 33.12c179.3,0.02 341.42,74.8 459.3,196.24 117.77,121.47 190.74,289.24 190.74,475l0 5099.75c0,18.28 14.83,33.12 33.12,33.12 18.3,0 33.12,-14.84 33.12,-33.12l0 -5099.75c0.02,-203.26 -79.97,-387.66 -209.44,-521.12 -129.4,-133.49 -308.86,-216.39 -506.84,-216.36l-1.26 0 -1.24 0.1c-49.35,3.73 -131.61,13.53 -223.47,44.4 -91.83,30.85 -193.67,82.96 -280.76,171.73 -47.29,48.2 -78.46,95.15 -90.52,113.95 -9.85,15.4 -5.36,35.87 10.04,45.74 15.4,9.87 35.88,5.38 45.75,-10.04z"/>
   <path class="fil17" d="M19045.92 7169.79l-1131.7 0c0,-114.35 92.68,-207.01 207.01,-207.01l717.67 0c114.35,0 207.02,92.66 207.02,207.01z"/>
   <path class="fil18" d="M19006.86 7169.79l-56.81 0c-0.2,-1.86 -0.39,-3.72 -0.63,-5.59 17.29,3.41 35.11,5.32 53.34,5.56l0.02 0c0.17,0 0.36,0 0.55,0 0.01,0 0.03,0 0.05,0 0.36,0.02 0.74,0.02 1.12,0.02 0.04,0 0.05,0 0.07,0 0.16,0 0.31,0 0.48,0 0.05,0 0.1,0 0.15,0 0.13,0 0.25,0 0.4,0 0.05,0 0.11,0.01 0.16,0.01 0.13,0 0.27,0 0.38,0 0.07,0 0.12,0 0.19,0 0.16,0 0.34,0 0.53,0l0 0zm-81.82 0l-528.53 0c93.96,-50.8 206.72,-122.39 286.06,-207.01l42.69 0c29.2,93.68 103.87,167.29 198.18,195.04 0.63,3.98 1.16,7.95 1.6,11.97z"/>
   <path class="fil19" d="M17725.31 2078.13c0,-0.25 0,-0.5 0,-0.75 0,0.25 0,0.5 0,0.75zm0 -1.08c0,-0.15 0,-0.28 0,-0.43 0,0.15 0,0.28 0,0.43zm0 -0.83c0,-0.13 0,-0.21 0,-0.35 0,0.12 0,0.24 0,0.35zm0 -0.81c0,-0.1 0,-0.17 0,-0.28 0,0.1 0,0.18 0,0.28zm-0.02 -0.74c0,-0.1 0,-0.19 0,-0.29 0,0.08 0,0.19 0,0.29zm0 -0.84c0,-0.06 0,-0.13 0,-0.19 0,0.06 0,0.13 0,0.19zm0 -0.87c0,-0.02 0,-0.05 0,-0.07 0,0.02 0,0.05 0,0.07zm-0.02 -0.73c0,-0.03 0,-0.05 0,-0.08 0,0.03 0,0.05 0,0.08zm-0.01 -0.78c0,-0.01 0,-0.03 0,-0.05 0,0.02 0,0.04 0,0.05zm0 -0.76c0,-0.01 0,-0.01 0,-0.03 0,0.02 0,0.03 0,0.03z"/>
   <path class="fil18" d="M17725.31 2217.86l-879.5 0c286.36,-80.02 548.55,-244.53 745.44,-467.31 81.26,82.7 132.05,195.46 134.01,320.11 0,0.02 0,0.02 0,0.03 0,0.25 0,0.48 0,0.71 0,0.02 0,0.04 0,0.05 0.01,0.23 0.01,0.46 0.01,0.7 0,0.03 0,0.05 0,0.08 0,0.22 0,0.45 0.02,0.66 0,0.02 0,0.05 0,0.07 0,0.23 0,0.45 0,0.68 0,0.06 0,0.13 0,0.19 0,0.17 0,0.37 0,0.55 0,0.1 0,0.19 0,0.29 0.02,0.15 0.02,0.31 0.02,0.46 0,0.11 0,0.18 0,0.28 0,0.17 0,0.32 0,0.46 0,0.14 0,0.22 0,0.35 0,0.14 0,0.27 0,0.4 0,0.15 0,0.28 0,0.43 0,0.1 0,0.22 0,0.33 0,0.25 0,0.5 0,0.75l0 139.73z"/>
   <path class="fil20" d="M19013.38 4930.25c-0.35,2.49 -0.52,4.97 -0.52,7.45l0 -3.8 0.52 -3.65z"/>
   <path class="fil20" d="M19272.53 5002.12c-19.54,22.36 -47.19,33.79 -74.85,33.79 -23.35,0 -46.7,-8.12 -65.58,-24.68 -16.71,-14.57 -26.66,-34.94 -28.15,-56.97 -1.33,-22.19 5.98,-43.55 20.53,-60.11 25.34,-28.81 69.57,-31.79 98.37,-6.29 11.94,10.27 18.9,24.67 19.87,40.57 1.16,15.73 -4.14,30.8 -14.57,42.72 -8.78,10.11 -21.2,16.23 -34.61,17.06 -13.58,0.83 -26.5,-3.64 -36.6,-12.42 -18.22,-15.9 -20.04,-43.72 -3.98,-61.77 5.99,-6.95 16.4,-7.61 23.35,-1.49 6.81,5.96 7.47,16.39 1.5,23.35 -1.99,2.16 -2.82,4.8 -2.66,7.62 0.17,2.82 1.5,5.46 3.65,7.29 3.49,3.14 8.11,4.63 12.6,4.3 4.62,-0.16 8.94,-2.32 11.91,-5.79 9.45,-10.77 8.45,-27.16 -2.3,-36.6 -15.24,-13.25 -38.27,-11.93 -51.69,3.31 -8.78,9.93 -13.08,22.85 -12.25,36.1 0.83,13.25 6.79,25.5 16.89,34.28 13.27,11.59 30.49,17.22 48.02,16.39 17.72,-1.16 33.95,-9.1 45.71,-22.51 15.42,-17.4 23.03,-39.92 21.55,-63.1 -1.51,-23.35 -11.95,-44.55 -29.5,-59.95 -46.86,-41.23 -118.57,-36.6 -159.64,10.27 -23.02,26.16 -34.11,49.18 -34.11,70.21l0 1555.84c0,9.11 -7.46,16.56 -16.56,16.56 -9.26,0 -16.57,-7.45 -16.57,-16.56l0 -856.66c-8.77,-64.09 -52.64,-117.91 -114.26,-139.44 -34.12,-11.92 -70.71,-9.77 -103.17,5.8 -32.29,15.73 -56.78,43.05 -68.54,77.17 -19.06,54.31 9.92,114.1 64.25,133.14 41.88,14.57 87.76,-7.61 102.33,-49.52 5.46,-15.39 4.47,-31.95 -2.65,-46.53 -7.12,-14.73 -19.38,-25.67 -34.76,-31.13 -23.7,-8.28 -49.69,4.3 -57.97,27.99 -2.99,8.61 -12.41,13.24 -21.04,10.26 -8.61,-2.98 -13.25,-12.41 -10.27,-21.19 14.24,-40.91 59.29,-62.6 100.02,-48.36 49.02,17.06 75.02,70.88 57.96,119.9 -16.22,46.7 -60.28,76.18 -107.31,76.18 -12.25,0 -24.83,-2.16 -37.09,-6.46 -71.71,-24.85 -109.8,-103.51 -84.79,-175.21 14.76,-42.4 45.23,-76.51 85.45,-96.05 40.57,-19.54 86.12,-22.03 128.51,-7.29 43.22,15.07 79.01,43.39 103.33,79.66l0 -608.1c0,-2.48 0.17,-4.96 0.52,-7.45 1.99,-27.16 15.73,-54.81 41.88,-84.62 53.16,-60.45 145.75,-66.57 206.34,-13.25 49.87,43.72 54.81,119.9 10.93,169.74z"/>
   <path class="fil20" d="M19001.75 5265.2c-167.68,0 -303.63,-135.94 -303.63,-303.63 167.69,0 303.63,135.94 303.63,303.63z"/>
   <path class="fil20" d="M19001.75 5265.2l0 -8.28c-81.57,0 -155.37,-33.06 -208.84,-86.51 -53.45,-53.48 -86.49,-127.27 -86.51,-208.84l-8.28 0 0 8.28c81.6,0 155.37,33.03 208.84,86.51 53.47,53.47 86.51,127.25 86.51,208.84l8.28 0 0 -8.28 0 8.28 8.28 0c0,-172.26 -139.63,-311.91 -311.91,-311.91l-8.28 0 0 8.28c0.02,172.26 139.65,311.91 311.91,311.91l8.28 0 0 -8.28 -8.28 0z"/>
   <path class="fil20" d="M19111.15 6416.07c-55.74,-377.03 204.69,-727.84 581.71,-783.58 55.74,376.99 -204.7,727.84 -581.71,783.58z"/>
   <path class="fil20" d="M19111.15 6416.07l8.18 -1.21c-5,-33.81 -7.42,-67.41 -7.42,-100.58 0,-332.4 243.47,-623.55 582.16,-673.61l-1.21 -8.18 -8.19 1.21c5,33.81 7.42,67.4 7.42,100.58 0.01,332.38 -243.46,623.53 -582.15,673.6l1.21 8.19 8.18 -1.21 -8.18 1.21 1.21 8.2c346.92,-51.32 596.29,-349.46 596.29,-689.99 0.01,-33.99 -2.49,-68.39 -7.6,-103.02l-1.21 -8.18 -8.19 1.21c-346.92,51.31 -596.3,349.44 -596.3,689.99 0,33.98 2.49,68.39 7.6,103l1.21 8.2 8.2 -1.21 -1.21 -8.2z"/>
   <path class="fil20" d="M18967.67 6379.27c-192.48,-47.19 -310.25,-241.49 -263.04,-433.97 192.48,47.21 310.24,241.5 263.04,433.97z"/>
   <path class="fil20" d="M18967.67 6379.27l1.97 -8.03c-160,-39.23 -267.14,-182.52 -267.14,-340.18 0,-27.64 3.29,-55.72 10.18,-83.79l-8.05 -1.97 -1.97 8.05c159.99,39.21 267.13,182.5 267.13,340.17 0,27.64 -3.28,55.73 -10.17,83.78l8.05 1.97 1.97 -8.03 -1.97 8.03 8.04 1.98c7.2,-29.37 10.64,-58.78 10.64,-87.73 0.02,-165.17 -112.21,-315.15 -279.75,-356.26l-8.05 -1.98 -1.97 8.04c-7.2,29.37 -10.65,58.78 -10.65,87.74 0,165.16 112.22,315.16 279.77,356.26l8.03 1.98 1.98 -8.05 -8.04 -1.98z"/>
   <path class="fil20" d="M19185.81 5709.58c34.04,84.88 -7.16,181.3 -92.06,215.37 -34.05,-84.9 7.16,-181.32 92.06,-215.37z"/>
   <path class="fil20" d="M19185.81 5709.58l-7.69 3.08c7.7,19.23 11.34,39.03 11.34,58.52 0,62.38 -37.34,121.44 -98.79,146.08l3.08 7.69 7.68 -3.09c-7.7,-19.22 -11.34,-39.03 -11.34,-58.52 0,-62.38 37.34,-121.45 98.8,-146.08l-3.08 -7.68 -7.69 3.08 7.69 -3.08 -3.1 -7.69c-67.9,27.24 -109.2,92.49 -109.19,161.45 0,21.56 4.03,43.49 12.54,64.68l3.08 7.69 7.69 -3.08c67.91,-27.26 109.21,-92.49 109.19,-161.45 0,-21.54 -4.02,-43.49 -12.53,-64.68l-3.1 -7.69 -7.68 3.08 3.1 7.69z"/>
   <path class="fil20" d="M19613.31 6334.59l-1.26 2.89c-43.95,100.55 -161.11,146.46 -261.69,102.49l-2.87 -1.26 1.25 -2.88c43.97,-100.56 161.11,-146.45 261.69,-102.49l2.88 1.25z"/>
   <path class="fil20" d="M19613.31 6334.59l-7.58 -3.32 -1.26 2.88c-31.27,71.56 -101.22,114.21 -174.62,114.23 -25.47,0 -51.32,-5.13 -76.17,-16l-2.87 -1.25 -3.32 7.58 7.58 3.33 1.25 -2.88c31.29,-71.56 101.22,-114.22 174.62,-114.24 25.47,0.02 51.32,5.14 76.17,16l2.87 1.26 3.33 -7.59 -7.58 -3.32 7.58 3.32 3.32 -7.58 -2.87 -1.26c-26.98,-11.79 -55.13,-17.39 -82.82,-17.39 -79.77,0 -155.79,46.41 -189.78,124.16l-1.26 2.86 -3.32 7.59 10.45 4.58c26.98,11.79 55.13,17.39 82.82,17.39 79.77,0 155.78,-46.38 189.78,-124.15l1.26 -2.87 3.33 -7.58 -7.59 -3.33 -3.32 7.58z"/>
   <path class="fil20" d="M18892.56 6430.31c-59.27,21.76 -124.95,-8.64 -146.73,-67.91 59.27,-21.76 124.95,8.64 146.73,67.91z"/>
   <path class="fil20" d="M18892.56 6430.31l-2.87 -7.76c-12.07,4.42 -24.39,6.52 -36.51,6.52 -43.21,-0.01 -83.82,-26.59 -99.56,-69.54l-7.79 2.87 2.85 7.77c12.09,-4.43 24.41,-6.53 36.53,-6.53 43.21,0.02 83.81,26.6 99.56,69.54l7.79 -2.87 -2.87 -7.76 2.87 7.76 7.76 -2.85c-18.23,-49.61 -65.15,-80.38 -115.11,-80.38 -14.02,0 -28.32,2.44 -42.23,7.53l-7.78 2.87 2.86 7.77c18.24,49.61 65.15,80.38 115.12,80.38 14.02,0 28.3,-2.43 42.23,-7.53l7.76 -2.87 -2.85 -7.77 -7.76 2.85z"/>
   <path class="fil20" d="M19284.59 5299.99c7.52,129.37 -91.27,240.32 -220.64,247.83 -7.5,-129.36 91.29,-240.31 220.64,-247.83z"/>
   <path class="fil20" d="M19284.59 5299.99l-8.27 0.48c0.27,4.47 0.39,8.91 0.4,13.34 0,118.98 -92.92,218.77 -213.25,225.74l0.48 8.27 8.27 -0.48c-0.25,-4.46 -0.38,-8.91 -0.38,-13.32 0,-118.98 92.9,-218.79 213.23,-225.75l-0.48 -8.28 -8.27 0.48 8.27 -0.48 -0.48 -8.26c-129.14,7.5 -228.83,114.55 -228.83,242.29 0,4.74 0.13,9.49 0.41,14.28l0.48 8.26 8.27 -0.48c129.13,-7.5 228.83,-114.55 228.83,-242.27 0,-4.74 -0.14,-9.5 -0.4,-14.28l-0.48 -8.28 -8.28 0.48 0.48 8.26z"/>
   <path class="fil21" d="M19165.44 6329.46c-4.24,0 -8.53,-4.48 -5.75,-9.27 117,-201.21 254.89,-389.77 411.12,-562.29 1.26,-1.39 2.7,-1.97 4.11,-1.97 4.61,0 8.78,6.23 4.69,10.75 -155.57,171.76 -292.72,359.46 -409.19,559.77 -1.24,2.12 -3.11,3.01 -4.98,3.01z"/>
   <path class="fil21" d="M18914.53 6310.95c-2.5,0 -5.07,-1.28 -6.19,-4.19 -42.36,-109.61 -99.25,-213.03 -168.9,-307.69 -3.33,-4.54 1.01,-8.94 5.51,-8.94 1.91,0 3.83,0.77 5.22,2.66 70.3,95.57 127.38,200.03 170.14,310.67 1.75,4.52 -1.95,7.49 -5.78,7.49z"/>
   <path class="fil21" d="M19412.68 6413.24c-5.38,0 -8.93,-8.2 -3.15,-11.64 39.17,-23.34 81.45,-41.12 125.51,-52.76 0.62,-0.15 1.2,-0.23 1.75,-0.23 6.45,0 8.69,10.35 1.57,12.22 -43.11,11.37 -84.26,28.66 -122.55,51.48 -1.08,0.65 -2.14,0.93 -3.13,0.93z"/>
   <path class="fil21" d="M19108.65 5873.54c-3.99,0 -8.35,-4.54 -6.11,-9.51 18.08,-40.15 38.17,-79.37 60.17,-117.54 1.22,-2.12 3.09,-3 4.96,-3 4.24,0 8.53,4.47 5.77,9.28 -22.02,38.15 -42.1,77.38 -60.17,117.54 -1.03,2.29 -2.78,3.23 -4.62,3.23z"/>
   <path class="fil21" d="M19094.03 5512.66c-4.61,0 -8.79,-6.24 -4.69,-10.76 49.73,-54.66 99.45,-109.32 149.18,-163.97 1.26,-1.39 2.71,-1.97 4.12,-1.97 4.59,0 8.78,6.23 4.65,10.75 -49.71,54.65 -99.42,109.31 -149.15,163.98 -1.26,1.39 -2.7,1.97 -4.11,1.97z"/>
   <path class="fil21" d="M18961.61 5213.48c-1.41,0 -2.83,-0.63 -4.04,-2.12 -61.72,-76.8 -132.15,-146.21 -209.83,-206.82 -5.02,-3.89 -0.47,-10.2 4.75,-10.2 1.34,0 2.73,0.41 4.02,1.41 77.69,60.61 148.12,130.03 209.85,206.83 3.76,4.69 -0.36,10.9 -4.75,10.9z"/>
   <path class="fil16" d="M19134.69 7169.79l-127.83 0c-162.89,0 -294.93,-132.03 -294.93,-294.92l0 -381.35 717.68 0 0 381.35c0,162.89 -132.04,294.92 -294.92,294.92z"/>
   <path class="fil20" d="M18867.7 6428.06c-0.13,-1.66 -0.27,-3.31 -0.43,-4.95 -0.57,-6.03 2.61,-9.74 6.89,-11.2 2.73,4.19 5.18,8.63 7.32,13.29 -4.57,1.27 -9.18,2.21 -13.78,2.86z"/>
   <path class="fil20" d="M18868.49 6444.66c-0.1,-5.52 -0.36,-11.05 -0.79,-16.6 4.6,-0.65 9.21,-1.59 13.78,-2.86 -2.14,-4.66 -4.59,-9.1 -7.32,-13.29 1.3,-0.43 2.72,-0.67 4.14,-0.69l0.07 0 0.07 0 0.07 0c6.23,0 12.85,3.99 13.6,11.89 0.23,2.38 0.43,4.77 0.6,7.15l-0.15 0.05 0.15 -0.05c0.19,2.88 0.36,5.75 0.47,8.62 -8.16,2.83 -16.42,4.73 -24.69,5.78z"/>
   <path class="fil20" d="M18800.68 6433.79c-7.12,-3.36 -13.93,-7.42 -20.29,-12.12 2.32,-1.56 5.14,-2.42 7.89,-2.42 4.88,0 9.6,2.69 11.11,8.88 0.45,1.88 0.89,3.77 1.29,5.66z"/>
   <path class="fil2" d="M19053.21 7225.32c-6.19,0 -12.24,-3.97 -11.91,-11.97 0.59,-14.54 0.28,-29.1 -0.95,-43.56l24.98 0c1.12,14.46 1.41,29.02 0.81,43.56 -0.33,7.98 -6.71,11.97 -12.93,11.97z"/>
   <path class="fil3" d="M18711.93 6857.85c-6.97,-4.93 -6.98,-16.75 0,-21.05l0 21.05z"/>
   <path class="fil2" d="M18938.99 7216.48c-6.21,0 -12.37,-4.01 -12.26,-12.01 0.17,-11.71 -0.39,-23.28 -1.69,-34.68l25.01 0c1.18,11.42 1.69,23.01 1.53,34.68 -0.12,8.02 -6.38,12.01 -12.59,12.01z"/>
   <path class="fil18" d="M18950.05 7169.79l-25.01 0c-0.44,-4.02 -0.97,-7.99 -1.6,-11.97 8.51,2.52 17.18,4.64 25.98,6.38 0.24,1.87 0.43,3.73 0.63,5.59z"/>
   <path class="fil16" d="M18949.42 7164.2c-8.8,-1.74 -17.47,-3.86 -25.98,-6.38l0 0c8.51,2.5 17.18,4.64 25.98,6.38l0 0z"/>
   <path class="fil3" d="M18717.85 6933.88c-2.54,-0.61 -5.09,-1.21 -7.66,-1.77 -14.59,-3.16 -9.78,-24.2 3.57,-24.28 0.97,8.81 2.34,17.51 4.09,26.05z"/>
   <path class="fil2" d="M19190.08 7264.68l-1.26 0c-7.92,-0.46 -16,-9.29 -11.41,-18.9 12.75,-26.72 21.56,-55.11 26.28,-84.1 8.84,-2.12 17.52,-4.64 26.03,-7.54 -4.62,35.91 -15.04,71.03 -30.85,104.16 -2.04,4.28 -5.33,6.18 -8.79,6.38z"/>
   <path class="fil16" d="M19203.69 7161.68l0 -0.02c8.84,-2.11 17.52,-4.62 26.03,-7.52l0 0c-8.51,2.9 -17.19,5.42 -26.03,7.54z"/>
   <polygon class="fil15" points="18711.93,6727.67 18711.93,6727.67 18711.93,6700.61 18711.93,6700.61 "/>
   <path class="fil15" d="M18711.93 6727.67l0 -27.06c15.06,-7.22 29.23,-15.72 42.45,-25.34l38.65 0c-23.72,21.35 -50.98,39.17 -81.1,52.4z"/>
   <polygon class="fil15" points="18865.08,6493.52 18890.43,6493.52 18890.43,6493.5 18865.08,6493.5 "/>
   <path class="fil15" d="M18824.69 6642.15l-32.64 0c38.52,-40.66 64.17,-92.57 73.03,-148.63l25.35 0c-7.89,55.07 -31.01,106.37 -65.74,148.63z"/>
   <path class="fil15" d="M18711.93 6640.99l0 -30.1 0 0 0 30.1zm92.08 -147.47l-24.78 0 0 -0.01 24.78 0c0,0.01 0,0 0,0.01z"/>
   <path class="fil15" d="M18711.93 6640.99l0 -30.1c37.87,-28.4 62.12,-71.04 67.3,-117.37l24.78 0c-5.9,59.95 -39.23,115.4 -92.08,147.47z"/>
   <polygon class="fil15" points="18711.93,6857.85 18711.93,6857.85 18711.93,6836.8 18711.93,6836.8 "/>
   <path class="fil15" d="M18933.03 6948.48c-58.44,-53.32 -135.13,-84.77 -214.36,-88.41 -2.7,-0.13 -4.95,-0.95 -6.74,-2.22l0 -21.05c1.64,-1.01 3.66,-1.59 6.05,-1.59 0.23,0 0.46,0 0.69,0 87.41,4.04 172.41,39.12 235.89,99.35 -7.12,4.71 -14.31,9.37 -21.53,13.92z"/>
   <path class="fil15" d="M18717.85 6933.88l0 0c-1.75,-8.54 -3.12,-17.24 -4.09,-26.05l0 0c0.97,8.81 2.34,17.49 4.09,26.05z"/>
   <path class="fil15" d="M18949.42 7164.2c-8.8,-1.74 -17.47,-3.88 -25.98,-6.38 0,-0.01 0,-0.01 0,-0.03 8.5,2.51 17.18,4.65 25.98,6.39 0,0.02 0,0 0,0.02zm-108.93 -163.4c-33.63,-31.75 -75.5,-55.26 -122.64,-66.92 -1.75,-8.56 -3.12,-17.24 -4.09,-26.05 0.03,0 0.04,0 0.08,0 0.94,0 1.92,0.1 2.94,0.33 57.2,12.42 107.65,41.15 146.98,80.6 -7.72,4.12 -15.45,8.13 -23.27,12.04z"/>
   <path class="fil15" d="M19078.19 6839.49c-41.64,-49.31 -87.08,-104.29 -115.69,-164.22l26.5 0c27.28,52.77 68.71,101.63 107.53,147.64 -6.05,5.59 -12.16,11.11 -18.34,16.58z"/>
   <polygon class="fil15" points="18969.86,6493.52 18943.83,6493.52 18943.83,6493.51 18969.86,6493.51 "/>
   <path class="fil15" d="M18974.1 6642.15l-25.39 0c-16.56,-46.9 -21.23,-96.54 -4.88,-148.63l26.03 0c-0.12,0.52 -0.27,1.05 -0.45,1.58 -17.72,52.35 -12.78,101.17 4.69,147.05z"/>
   <polygon class="fil15" points="19272.02,6493.52 19296.93,6493.52 19296.93,6493.5 19272.02,6493.5 "/>
   <path class="fil15" d="M19296.16 6580.48c-12.48,-27.11 -20.76,-56.4 -24.14,-86.96l24.9 0c2.47,21.05 7.54,41.42 14.91,60.76 -5.1,8.82 -10.33,17.54 -15.67,26.2z"/>
   <path class="fil15" d="M19206.06 6493.52l-24.94 0c0,-0.01 0,0 0,-0.01l24.94 0 0 0.01z"/>
   <path class="fil15" d="M19254.12 6642.15l-27.24 0c-21.92,-46.98 -37.48,-97.04 -45.76,-148.63l24.94 0c8.58,51.77 24.97,101.87 48.06,148.63z"/>
   <polygon class="fil22" points="18711.93,6675.27 18711.93,6675.27 18711.93,6642.15 18711.93,6642.15 "/>
   <path class="fil22" d="M19230.98 6675.27l-519.05 0 0 -33.12 543.43 0c-7.93,11.2 -16.06,22.22 -24.38,33.12z"/>
   <path class="fil23" d="M19006.33 7169.79c-0.07,0 -0.12,0 -0.19,0 0.07,0 0.12,0 0.19,0zm-0.57 0c-0.05,0 -0.11,-0.01 -0.16,-0.01 0.05,0 0.11,0.01 0.16,0.01zm-0.56 -0.01c-0.05,0 -0.1,0 -0.15,0 0.03,0 0.1,0 0.15,0zm-0.63 0c-0.02,0 -0.03,0 -0.07,0 0.04,0 0.04,0 0.07,0zm-1.19 -0.02c-0.02,0 -0.04,0 -0.05,0 0.01,0 0.01,0 0.05,0zm-0.6 0l-0.02 0 0.02 0z"/>
   <path class="fil24" d="M19134.69 7169.79l-69.36 0 0 -0.01c-6.39,-81.44 -39.86,-160.13 -95.92,-220.24 -4.8,-5.16 -9.75,-10.15 -14.85,-14.98 43.33,-28.78 84.65,-60.6 123.63,-95.07 1.75,2.03 3.47,4.09 5.19,6.11 46.29,54.71 92.69,112.71 112.71,182.82 12.42,43.42 14.77,89.06 7.6,133.24l0 0c-20.95,5.04 -42.77,7.82 -65.2,8.1 -1.27,0.02 -2.53,0.03 -3.8,0.03zm-94.34 0l-33.49 0 0 0c-0.19,0 -0.37,0 -0.53,0 -0.07,0 -0.12,0 -0.19,0 -0.11,0 -0.25,0 -0.38,0 -0.05,0 -0.11,-0.01 -0.16,-0.01 -0.15,0 -0.27,0 -0.4,0 -0.05,0 -0.12,0 -0.15,0 -0.17,0 -0.32,0 -0.48,0 -0.03,0 -0.03,0 -0.07,0 -0.38,0 -0.76,0 -1.12,-0.02 -0.04,0 -0.04,0 -0.05,0 -0.19,0 -0.37,0 -0.55,0l-0.02 0c-18.23,-0.24 -36.06,-2.15 -53.34,-5.58 -8.23,-67.23 -39.19,-128.8 -85.66,-175.42 23.58,-12.57 46.68,-26.01 69.27,-40.28 6.51,5.95 12.78,12.16 18.83,18.62 51.68,55.42 82.17,127.75 88.49,202.68 0,0 0,0 0,0.01zm-116.91 -12c-64.57,-19.06 -119.86,-59.69 -157.74,-113.47 2.47,-5.68 4.99,-11.36 8,-16.87l21.1 -5.02c15.4,-6.84 30.65,-14.07 45.69,-21.63 43.59,41.15 73.36,96.1 82.95,156.99zm306.28 -3.65c0,-0.01 0,-0.01 0,-0.01 3.84,-30 3.65,-60.55 -0.84,-90.95 -10.25,-69.41 -44.48,-129.85 -86.81,-184.7 -13.94,-18.08 -29.53,-36.58 -45.54,-55.57 48.95,-45.19 93.99,-94.68 134.45,-147.64l12.65 0c44.3,80.89 107.99,150.95 185.98,201.85l0 0c-0.98,128.64 -84.31,237.7 -199.89,277.02zm199.89 -306.99l0 0c-64.51,-45.06 -118.33,-104.24 -157.71,-171.88l95.19 0c18.73,16.33 39.69,30.28 62.52,41.29l0 130.59zm0 -158.4l0 0c-7.64,-4.12 -15.03,-8.63 -22.15,-13.48l22.15 0 0 13.48zm0 -46.6l-61.63 0c-24.41,-25.04 -43.61,-54.94 -56.15,-87.87 11.54,-19.92 22.49,-40.17 32.79,-60.76l84.99 0 0 148.63zm-94.73 0l-79.52 0c14.26,-20.1 27.87,-40.69 40.8,-61.67 10.22,22.21 23.25,42.93 38.72,61.67z"/>
   <path class="fil24" d="M19065.33 7169.79l-24.98 0c0,-0.01 0,-0.01 0,-0.01l24.98 0 0 0.01z"/>
   <path class="fil24" d="M19203.69 7161.66l0 0c8.84,-2.11 17.52,-4.63 26.03,-7.53 0,0 0,0 0,0.01 -8.51,2.9 -17.19,5.41 -26.03,7.52z"/>
   <polygon class="fil24" points="19429.61,6716.56 19429.61,6716.56 19429.61,6688.75 19429.61,6688.75 "/>
   <path class="fil24" d="M19429.61 6877.12l0 0c0,-0.75 0,-1.5 0,-2.25l0 -27.72 0 27.72c0,0.76 0,1.5 0,2.25z"/>
   <polygon class="fil24" points="19429.61,6675.27 19429.61,6675.27 19429.61,6642.15 19429.61,6642.15 "/>
   <path class="fil25" d="M19065.33 7169.78l-24.98 0c-6.32,-74.93 -36.81,-147.26 -88.49,-202.68 -6.05,-6.46 -12.32,-12.67 -18.83,-18.62 7.22,-4.55 14.41,-9.21 21.53,-13.92 5.1,4.83 10.05,9.82 14.85,14.98 56.06,60.11 89.53,138.8 95.92,220.24z"/>
   <path class="fil25" d="M18949.42 7164.18c-8.8,-1.74 -17.48,-3.88 -25.98,-6.39 -9.59,-60.89 -39.36,-115.84 -82.95,-156.99 7.82,-3.91 15.55,-7.92 23.27,-12.04 46.47,46.62 77.43,108.19 85.66,175.42z"/>
   <path class="fil25" d="M19203.69 7161.66c7.17,-44.18 4.82,-89.82 -7.6,-133.24 -20.02,-70.11 -66.42,-128.11 -112.71,-182.82 -1.72,-2.02 -3.44,-4.08 -5.19,-6.11 6.18,-5.47 12.29,-10.99 18.34,-16.58 16.01,18.99 31.6,37.49 45.54,55.57 42.33,54.85 76.56,115.29 86.81,184.7 4.49,30.4 4.68,60.95 0.84,90.95 -8.51,2.9 -17.19,5.42 -26.03,7.53z"/>
   <path class="fil25" d="M19429.61 6716.56c-22.83,-11.01 -43.79,-24.96 -62.52,-41.29l40.37 0c7.12,4.85 14.51,9.36 22.15,13.48l0 27.81z"/>
   <path class="fil25" d="M19367.98 6642.15l-33.1 0c-15.47,-18.74 -28.5,-39.46 -38.72,-61.67 5.34,-8.66 10.57,-17.38 15.67,-26.2 12.54,32.93 31.74,62.83 56.15,87.87z"/>
   <path class="fil25" d="M19429.61 6877.12c-77.99,-50.9 -141.68,-120.96 -185.98,-201.85l28.27 0c39.38,67.64 93.2,126.82 157.71,171.88l0 27.72c0,0.75 0,1.5 0,2.25z"/>
   <path class="fil26" d="M19429.61 6675.27l-198.63 0c8.32,-10.9 16.45,-21.92 24.38,-33.12l174.25 0 0 33.12z"/>
   <path class="fil11" d="M16523.1 5541.23l-3477.98 0 0 -356.27c0,-458.77 371.91,-830.66 830.67,-830.66l1816.63 0c458.76,0 830.68,371.89 830.68,830.66l0 356.27z"/>
   <path class="fil27" d="M16219.46 5541.23l-66.25 0 0 -387.88c0,-136.4 110.58,-246.98 247.01,-246.98l75 0 -8.76 0c-136.42,0 -247,110.58 -247,246.98l0 387.88z"/>
   <path class="fil16" d="M16812.92 6603.95l-593.46 0 0 -1450.6c0,-136.4 110.58,-246.98 247,-246.98l99.46 0c136.41,0 247,110.58 247,246.98l0 1450.6z"/>
   <path class="fil27" d="M13407.02 5541.23l-58.26 0 0 -387.88c0,-136.4 -110.59,-246.98 -246.99,-246.98l-8.77 0 75.01 0c136.4,0 246.99,110.58 246.99,246.98l0 177.16c-9.05,21.35 -15.94,43.9 -20.37,67.68 -0.02,0.04 -0.02,0.07 -0.02,0.1 -0.09,0.45 -0.17,0.9 -0.25,1.35 0,0.01 -0.01,0.03 -0.01,0.05 -0.03,0.13 -0.06,0.28 -0.07,0.41 -0.01,0.05 -0.02,0.08 -0.03,0.13 -0.08,0.41 -0.15,0.81 -0.22,1.23 -0.01,0.06 -0.02,0.13 -0.03,0.19 -0.02,0.11 -0.05,0.25 -0.07,0.35 -0.01,0.09 -0.02,0.14 -0.03,0.22 -0.04,0.2 -0.07,0.4 -0.1,0.58 -0.01,0.08 -0.03,0.16 -0.05,0.25 -0.02,0.11 -0.03,0.21 -0.05,0.33 -0.02,0.08 -0.03,0.17 -0.04,0.26 -0.02,0.08 -0.04,0.2 -0.06,0.29 -0.02,0.14 -0.05,0.31 -0.08,0.46 -0.01,0.08 -0.03,0.23 -0.05,0.31 -0.02,0.1 -0.03,0.24 -0.04,0.33 -0.03,0.1 -0.04,0.17 -0.05,0.27 -0.02,0.1 -0.04,0.21 -0.05,0.32 -0.02,0.08 -0.04,0.19 -0.05,0.27 -0.03,0.17 -0.06,0.35 -0.08,0.52 -0.02,0.08 -0.03,0.16 -0.04,0.25 -0.02,0.1 -0.04,0.23 -0.06,0.35 -0.01,0.08 -0.03,0.16 -0.04,0.24 -0.02,0.19 -0.05,0.35 -0.08,0.52 -0.01,0.05 -0.01,0.09 -0.02,0.15 -0.03,0.15 -0.06,0.31 -0.07,0.46 -0.02,0.07 -0.03,0.17 -0.04,0.23 -0.02,0.15 -0.04,0.28 -0.07,0.43 0,0.07 -0.01,0.1 -0.02,0.15 -0.03,0.2 -0.06,0.4 -0.09,0.6 0,0.03 -0.02,0.1 -0.02,0.13 -0.02,0.15 -0.05,0.32 -0.07,0.47 -0.01,0.06 -0.02,0.13 -0.03,0.17 -0.02,0.17 -0.04,0.34 -0.07,0.5 0,0.03 -0.01,0.09 -0.01,0.12 -0.03,0.2 -0.06,0.4 -0.09,0.59 -0.01,0.05 -0.02,0.1 -0.02,0.16 -0.03,0.16 -0.05,0.31 -0.08,0.46 0,0.07 -0.01,0.1 -0.01,0.16 -0.03,0.2 -0.06,0.4 -0.09,0.6 0,0.03 0,0.05 -0.01,0.08 -0.03,0.18 -0.04,0.35 -0.07,0.53 -0.02,0.05 -0.02,0.1 -0.03,0.15 -0.02,0.18 -0.04,0.37 -0.07,0.53 0,0.03 -0.01,0.07 -0.01,0.08 -0.03,0.22 -0.06,0.4 -0.08,0.62 -0.01,0.05 -0.01,0.09 -0.02,0.15 -0.03,0.16 -0.05,0.31 -0.07,0.47 0,0.06 -0.01,0.1 -0.01,0.16 -0.06,0.41 -0.11,0.81 -0.16,1.22 -0.01,0.05 -0.02,0.08 -0.03,0.15 -0.02,0.15 -0.03,0.33 -0.06,0.49 0,0.04 -0.01,0.11 -0.01,0.14 -0.03,0.22 -0.05,0.41 -0.08,0.63l-0.01 0.03c-0.02,0.2 -0.04,0.38 -0.07,0.58 -0.01,0.05 -0.01,0.08 -0.02,0.13 -0.01,0.2 -0.04,0.4 -0.07,0.6l0 0.02c-0.02,0.21 -0.05,0.43 -0.08,0.64 0,0.02 0,0.07 -0.01,0.1 -0.02,0.17 -0.04,0.36 -0.06,0.53 -0.01,0.03 -0.01,0.08 -0.01,0.11 -0.05,0.42 -0.1,0.85 -0.15,1.28 -0.01,0.05 -0.01,0.05 -0.01,0.12 -0.02,0.18 -0.04,0.36 -0.07,0.54 0,0.04 0,0.06 -0.01,0.09 -0.01,0.21 -0.04,0.43 -0.07,0.64 0,0.02 0,0.03 0,0.05 -0.02,0.2 -0.04,0.38 -0.06,0.58 -0.01,0.05 -0.01,0.07 -0.01,0.12 -0.05,0.43 -0.09,0.84 -0.13,1.27 -0.01,0.05 -0.01,0.05 -0.01,0.12 -0.02,0.17 -0.04,0.34 -0.06,0.51 0,0.07 -0.01,0.08 -0.02,0.15 -0.02,0.2 -0.03,0.42 -0.05,0.61l-0.01 0.06c-0.02,0.19 -0.04,0.38 -0.06,0.57 0,0.05 0,0.09 -0.01,0.15 -0.01,0.17 -0.04,0.33 -0.04,0.5 -0.01,0.03 -0.02,0.11 -0.02,0.15 -0.02,0.2 -0.04,0.4 -0.06,0.59 0,0.07 0,0.11 -0.01,0.15 -0.01,0.17 -0.03,0.34 -0.05,0.48 0,0.05 0,0.14 -0.01,0.18 -0.02,0.22 -0.04,0.4 -0.06,0.62l0 0c-0.95,8.13 -1.43,16.25 -1.43,24.34 0,29.15 6.17,57.98 18.29,86.07z"/>
   <path class="fil16" d="M13348.76 6603.95l-593.46 0 0 -1450.6c0,-136.4 110.58,-246.98 246.99,-246.98l99.48 0c136.4,0 246.99,110.58 246.99,246.98l0 1450.6z"/>
   <polygon class="fil11" points="13348.76,6603.95 16219.46,6603.95 16219.46,6217.5 13348.76,6217.5 "/>
   <path class="fil28" d="M16219.46 6244.38l0 -26.88 9.92 0c-2.33,9.4 -5.68,18.4 -9.92,26.88z"/>
   <path class="fil27" d="M16102.18 6316.86l-210.11 0c10.81,-30.9 22.7,-64.22 35.26,-99.36l292.13 0 0 26.88c-21.51,42.97 -65.96,72.48 -117.28,72.48zm-763.94 0l-1858.41 0c-61.45,0 -113.03,-42.3 -127.21,-99.36l1922.71 0c-5.23,17.6 -8.18,27.6 -8.18,27.6l0 0 0 0 0.01 0c0.42,0.37 29.05,24.99 77.66,53.89l-6.58 17.87z"/>
   <polygon class="fil16" points="13348.76,6217.5 16233.25,6217.5 16233.25,5541.22 13348.76,5541.22 "/>
   <polygon class="fil17" points="16688.71,7225 16602.45,7225 16474.79,6603.95 16647.3,6603.95 "/>
   <polygon class="fil17" points="13010.62,7225 13096.89,7225 13224.55,6603.95 13052.03,6603.95 "/>
   <path class="fil29" d="M15084.04 1968.61c-149.77,5.34 -267.03,126.87 -261.9,271.49 0.12,3.41 0.63,6.71 0.9,10.07 -50.48,-39.41 -114.87,-51.91 -170.46,-26.49 -84.61,38.66 -116.62,150.03 -71.49,248.73 45.11,98.71 150.27,147.37 234.87,108.7 59.3,-27.09 92.62,-89.92 91.81,-159.06 50.79,45.85 119.78,72.93 194.87,70.26 149.77,-5.31 267.03,-126.86 261.9,-271.47 -5.13,-144.6 -130.71,-257.53 -280.5,-252.23z"/>
   <path class="fil30" d="M15364.11 2246.38c-69.5,-46.52 -158.75,-63.13 -242.87,-54.5 -103.11,10.58 -199.85,54.91 -289.28,107.33 -34.59,20.28 -68.74,42.02 -106.41,55.82 -37.69,13.81 -79.98,19.18 -117.86,5.93 -15.54,-5.43 -29.88,-14.61 -41.7,-26.17 -10.02,42.89 -5.95,91.6 15.1,137.62 45.11,98.71 150.27,147.37 234.87,108.7 59.3,-27.09 92.62,-89.92 91.81,-159.06 50.79,45.85 119.78,72.93 194.87,70.26 140.86,-5 252.89,-112.8 261.47,-245.93z"/>
   <path class="fil29" d="M15597.21 2818.42c10.15,285.65 -205.48,525.18 -481.62,534.98 -276.13,9.79 -508.2,-213.83 -518.34,-499.49 -10.15,-285.65 205.48,-525.16 481.62,-534.96 276.13,-9.81 508.21,213.8 518.34,499.47z"/>
   <path class="fil31" d="M14865.15 3203.46c0,0 -16.33,318.22 -13.88,387.18 29.05,40.41 142.34,119.23 142.34,119.23l175.87 -102.9 -7.84 -220.68 -296.49 -182.83z"/>
   <path class="fil32" d="M14860.59 3297.29l0 0c0.08,-1.84 0.17,-3.67 0.25,-5.48l0 0c-0.08,1.81 -0.17,3.64 -0.25,5.48z"/>
   <path class="fil33" d="M14860.84 3291.81l0 0c2.37,-50.54 4.24,-87.11 4.31,-88.31 -0.07,1.2 -1.94,37.74 -4.31,88.31zm4.31 -88.31l0 -0.02 0 0.02zm0 -0.02l0 0 0 0zm0 0c0,-0.02 0,-0.02 0,-0.02 0,0 0,0 0,0.02zm0 -0.02l0 0 0 0z"/>
   <path class="fil34" d="M15166.19 3514.38c-141.55,-26.96 -240.55,-123.06 -305.6,-217.09 0.08,-1.84 0.17,-3.67 0.25,-5.48 2.37,-50.57 4.24,-87.11 4.31,-88.31l0 0 0 -0.02 0 0 0 0 0 0c0,-0.02 0,-0.02 0,-0.02l0 0 0 0 0 0 296.49 182.83 4.55 128.09z"/>
   <path class="fil31" d="M14702.91 3019.86c22.2,65.39 153.01,407.07 465.39,420.79 5.98,0.27 12.01,-0.69 17.6,-2.73 214.58,-78.26 396.85,-249 389.12,-466.8 -7.83,-220.7 -155.07,-477.84 -321.55,-499.56 -166.5,-21.71 -424.66,97.94 -499.56,321.56 -36.26,123.17 -48.65,181.99 -52.68,204.5 -1.34,7.48 -0.76,15.04 1.68,22.24z"/>
   <path class="fil31" d="M14025.03 5292.8l963.94 184.87c27.07,5.18 49.56,24.03 59.4,49.79l139.22 364.1c16.73,43.77 1.71,93.1 -36.23,120.56 -57.05,41.3 -142.34,70.23 -201.64,-56.85 -49.58,-106.25 -77.37,-179.8 -92.64,-226.2 -12,-36.42 -48.04,-59.12 -86.03,-54.07 -169.94,22.56 -610.92,73.2 -787.42,18.05 -220.83,-69.01 41.4,-400.25 41.4,-400.25z"/>
   <path class="fil31" d="M15405.16 6134.69l-232.13 631.91c-10.39,28.3 -8.64,59.64 4.84,86.61l180.69 361.4c21.51,43 64.32,71.24 112.33,74.12 91.18,5.45 220.17,-2.88 155.1,-105.12 -61.62,-96.83 -128.84,-193.64 -169.46,-251.09 -23.08,-32.64 -26.43,-75.25 -8.83,-111.17l316.31 -645.25 -345.04 -41.41 -13.81 0z"/>
   <path class="fil1" d="M15607.64 6495.05c-2.38,-0.25 -4.75,-0.63 -7.05,-1.08 -66.67,-12.98 -129.77,-43.9 -180.89,-88.65 -31.21,-27.34 -57.83,-59.81 -78.84,-95.58l3.96 -10.75c69.7,41.45 180.52,91.7 308.13,91.7 1.96,0 3.91,-0.02 5.88,-0.04l-51.19 104.4z"/>
   <path class="fil15" d="M14383.86 5886.26c0,0 -69.01,-345.03 55.21,-510.65 248.42,41.41 579.66,110.42 579.66,110.42 0,0 215.61,57.5 351.21,94.69 55.33,15.17 86.14,74.02 67.03,128.11 -72.1,204.02 -169.82,536.27 -169.82,536.27 0,0 303.63,262.24 621.08,82.8 110.4,-317.42 345.03,-910.88 234.62,-1048.91 -82.82,-110.41 -703.88,-289.82 -703.88,-289.82l-1035.11 -41.4c0,0 -952.3,13.8 -993.7,483.05 -27.6,234.62 345.03,455.44 993.7,455.44z"/>
   <path class="fil35" d="M14383.86 5886.26c-0.05,-0.28 -15.06,-75.42 -18.43,-172.33 0.01,0 0.03,0 0.06,0 3.34,96.9 18.32,172.05 18.37,172.33z"/>
   <path class="fil36" d="M14365.43 5713.93l0 0c0.01,0 0.03,0 0.06,0l0 0c-0.03,0 -0.05,0 -0.06,0z"/>
   <path class="fil37" d="M13390.16 5430.82c0.02,-0.22 0.04,-0.4 0.06,-0.62 -0.02,0.21 -0.04,0.42 -0.06,0.62zm0.07 -0.8c0.02,-0.14 0.04,-0.31 0.05,-0.48 -0.01,0.19 -0.03,0.3 -0.05,0.48zm0.06 -0.63c0.02,-0.19 0.04,-0.39 0.06,-0.59 -0.02,0.2 -0.04,0.4 -0.06,0.59zm0.08 -0.74c0,-0.17 0.03,-0.33 0.04,-0.5 -0.01,0.17 -0.03,0.33 -0.04,0.5zm0.05 -0.65c0.02,-0.19 0.04,-0.38 0.06,-0.57 -0.02,0.19 -0.04,0.38 -0.06,0.57zm0.07 -0.63c0.02,-0.19 0.03,-0.41 0.05,-0.61 -0.02,0.2 -0.03,0.42 -0.05,0.61zm0.07 -0.76c0.02,-0.17 0.04,-0.34 0.06,-0.51 -0.02,0.17 -0.04,0.34 -0.06,0.51zm0.07 -0.63c0.04,-0.43 0.08,-0.84 0.13,-1.27 -0.05,0.4 -0.09,0.88 -0.13,1.27zm0.14 -1.39c0.02,-0.2 0.04,-0.38 0.06,-0.58 -0.01,0.19 -0.04,0.42 -0.06,0.58zm0.06 -0.63c0.03,-0.21 0.06,-0.43 0.07,-0.64 -0.01,0.23 -0.04,0.41 -0.07,0.64zm0.08 -0.73c0.03,-0.18 0.05,-0.36 0.07,-0.54 -0.02,0.16 -0.04,0.38 -0.07,0.54zm0.08 -0.66c0.05,-0.43 0.1,-0.86 0.15,-1.28 -0.05,0.44 -0.1,0.85 -0.15,1.28zm0.16 -1.39c0.02,-0.17 0.04,-0.36 0.06,-0.53 -0.02,0.17 -0.04,0.36 -0.06,0.53zm0.07 -0.63c0.03,-0.21 0.06,-0.43 0.08,-0.64 -0.02,0.23 -0.05,0.41 -0.08,0.64zm0.08 -0.66c0.03,-0.2 0.06,-0.4 0.07,-0.6 -0.01,0.2 -0.04,0.42 -0.07,0.6zm0.09 -0.73c0.03,-0.2 0.05,-0.38 0.07,-0.58 -0.02,0.2 -0.04,0.38 -0.07,0.58zm0.08 -0.61c0.03,-0.22 0.05,-0.41 0.08,-0.63 -0.03,0.22 -0.05,0.39 -0.08,0.63zm0.09 -0.77c0.03,-0.16 0.04,-0.34 0.06,-0.49 -0.02,0.16 -0.03,0.33 -0.06,0.49zm0.09 -0.64c0.05,-0.41 0.1,-0.81 0.16,-1.22 -0.06,0.39 -0.11,0.82 -0.16,1.22zm0.17 -1.38c0.02,-0.16 0.04,-0.31 0.07,-0.47 -0.03,0.16 -0.05,0.29 -0.07,0.47zm0.09 -0.62c0.02,-0.22 0.05,-0.4 0.08,-0.62 -0.03,0.2 -0.06,0.42 -0.08,0.62zm0.09 -0.7c0.03,-0.16 0.05,-0.35 0.07,-0.53 -0.02,0.18 -0.04,0.37 -0.07,0.53zm0.1 -0.68c0.03,-0.18 0.04,-0.35 0.07,-0.53 -0.02,0.17 -0.05,0.37 -0.07,0.53zm0.08 -0.61c0.03,-0.2 0.06,-0.4 0.09,-0.6 -0.03,0.2 -0.06,0.4 -0.09,0.6zm0.1 -0.76c0.03,-0.15 0.05,-0.3 0.08,-0.46 -0.03,0.16 -0.05,0.29 -0.08,0.46zm0.1 -0.62c0.03,-0.19 0.06,-0.39 0.09,-0.59 -0.03,0.2 -0.06,0.4 -0.09,0.59zm0.1 -0.71c0.03,-0.16 0.05,-0.33 0.07,-0.5 -0.02,0.17 -0.04,0.34 -0.07,0.5zm0.1 -0.67c0.02,-0.15 0.05,-0.32 0.07,-0.47 -0.02,0.16 -0.04,0.3 -0.07,0.47zm0.09 -0.6c0.03,-0.2 0.06,-0.4 0.09,-0.6 -0.03,0.2 -0.06,0.4 -0.09,0.6zm0.11 -0.75c0.03,-0.15 0.05,-0.28 0.07,-0.43 -0.03,0.17 -0.04,0.26 -0.07,0.43zm0.11 -0.66c0.01,-0.15 0.04,-0.31 0.07,-0.46 -0.03,0.16 -0.05,0.29 -0.07,0.46zm0.09 -0.61c0.03,-0.17 0.06,-0.33 0.08,-0.52 -0.02,0.17 -0.05,0.35 -0.08,0.52zm0.12 -0.76c0.02,-0.12 0.04,-0.25 0.06,-0.35 -0.02,0.1 -0.04,0.23 -0.06,0.35zm0.1 -0.6c0.02,-0.17 0.05,-0.35 0.08,-0.52 -0.02,0.17 -0.06,0.35 -0.08,0.52zm0.13 -0.79c0.01,-0.11 0.03,-0.22 0.05,-0.32 -0.02,0.11 -0.04,0.21 -0.05,0.32zm0.1 -0.59c0.01,-0.09 0.02,-0.23 0.04,-0.33 -0.02,0.12 -0.03,0.22 -0.04,0.33zm0.09 -0.64c0.03,-0.15 0.06,-0.32 0.08,-0.46 -0.02,0.16 -0.05,0.29 -0.08,0.46zm0.14 -0.75c0.01,-0.09 0.02,-0.18 0.04,-0.26 -0.02,0.1 -0.03,0.15 -0.04,0.26zm0.09 -0.59c0.02,-0.09 0.04,-0.17 0.05,-0.25 -0.01,0.08 -0.03,0.16 -0.05,0.25zm0.15 -0.83c0.01,-0.08 0.02,-0.13 0.03,-0.22 0,0.07 -0.02,0.17 -0.03,0.22zm0.1 -0.57c0.01,-0.06 0.02,-0.13 0.03,-0.19 -0.01,0.08 -0.02,0.11 -0.03,0.19zm0.25 -1.42c0.01,-0.05 0.02,-0.08 0.03,-0.13 -0.01,0.03 -0.02,0.1 -0.03,0.13zm0.1 -0.54c0,-0.02 0.01,-0.04 0.01,-0.05 0,0.03 0,0.01 -0.01,0.05zm0.26 -1.4c0,-0.03 0,-0.06 0.02,-0.1 -0.02,0.06 -0.02,0.06 -0.02,0.1z"/>
   <path class="fil38" d="M14383.86 5886.26c-626.18,0 -995.13,-205.78 -995.13,-431.1 0,-8.09 0.48,-16.21 1.43,-24.34l0 0c0.02,-0.2 0.04,-0.41 0.06,-0.62 0.01,-0.06 0.01,-0.11 0.01,-0.18 0.02,-0.18 0.04,-0.29 0.05,-0.48 0.01,-0.04 0.01,-0.1 0.01,-0.15 0.02,-0.19 0.04,-0.39 0.06,-0.59 0.01,-0.05 0.01,-0.1 0.02,-0.15 0.01,-0.17 0.03,-0.33 0.04,-0.5 0.01,-0.05 0.01,-0.1 0.01,-0.15 0.02,-0.19 0.04,-0.38 0.06,-0.57 0,-0.02 0.01,-0.04 0.01,-0.06 0.02,-0.19 0.03,-0.41 0.05,-0.61 0.01,-0.05 0.02,-0.1 0.02,-0.15 0.02,-0.17 0.04,-0.34 0.06,-0.51 0,-0.05 0,-0.08 0.01,-0.12 0.04,-0.39 0.08,-0.87 0.13,-1.27 0,-0.04 0,-0.09 0.01,-0.12 0.02,-0.16 0.05,-0.39 0.06,-0.58 0,-0.02 0,-0.03 0,-0.05 0.03,-0.23 0.06,-0.41 0.07,-0.64 0.01,-0.02 0.01,-0.05 0.01,-0.09 0.03,-0.16 0.05,-0.38 0.07,-0.54 0,-0.05 0,-0.09 0.01,-0.12 0.05,-0.43 0.1,-0.84 0.15,-1.28 0,-0.03 0,-0.06 0.01,-0.11 0.02,-0.17 0.04,-0.36 0.06,-0.53 0.01,-0.05 0.01,-0.06 0.01,-0.1 0.03,-0.23 0.06,-0.41 0.08,-0.64l0 -0.02c0.03,-0.18 0.06,-0.4 0.07,-0.6 0.01,-0.05 0.01,-0.1 0.02,-0.13 0.03,-0.2 0.05,-0.38 0.07,-0.58 0,-0.02 0,-0.03 0.01,-0.03 0.03,-0.24 0.05,-0.41 0.08,-0.63 0,-0.05 0.01,-0.08 0.01,-0.14 0.03,-0.16 0.04,-0.33 0.06,-0.49 0.01,-0.05 0.02,-0.1 0.03,-0.15 0.05,-0.4 0.1,-0.83 0.16,-1.22 0,-0.06 0.01,-0.1 0.01,-0.16 0.02,-0.18 0.04,-0.31 0.07,-0.47 0.01,-0.06 0.01,-0.1 0.02,-0.15 0.02,-0.2 0.05,-0.42 0.08,-0.62 0,-0.03 0.01,-0.05 0.01,-0.08 0.03,-0.16 0.05,-0.35 0.07,-0.53 0.01,-0.05 0.02,-0.1 0.03,-0.15 0.02,-0.16 0.05,-0.36 0.07,-0.53 0.01,-0.01 0.01,-0.07 0.01,-0.08 0.03,-0.2 0.06,-0.4 0.09,-0.6 0,-0.05 0.01,-0.11 0.01,-0.16 0.03,-0.17 0.05,-0.3 0.08,-0.46 0,-0.06 0.01,-0.11 0.02,-0.16 0.03,-0.19 0.06,-0.39 0.09,-0.59 0,-0.03 0,-0.07 0.01,-0.12 0.03,-0.16 0.05,-0.33 0.07,-0.5 0.01,-0.04 0.02,-0.11 0.03,-0.17 0.03,-0.17 0.05,-0.31 0.07,-0.47 0.01,-0.05 0.02,-0.1 0.02,-0.13 0.03,-0.2 0.06,-0.4 0.09,-0.6 0.01,-0.05 0.02,-0.1 0.02,-0.15 0.03,-0.17 0.04,-0.26 0.07,-0.43 0.01,-0.08 0.02,-0.15 0.04,-0.23 0.02,-0.17 0.04,-0.3 0.07,-0.46 0.01,-0.06 0.01,-0.1 0.02,-0.15 0.03,-0.17 0.06,-0.35 0.08,-0.52 0.01,-0.08 0.03,-0.16 0.04,-0.24 0.02,-0.12 0.04,-0.25 0.06,-0.35 0.01,-0.1 0.02,-0.17 0.04,-0.25 0.02,-0.17 0.06,-0.35 0.08,-0.52 0.01,-0.08 0.03,-0.18 0.05,-0.27 0.01,-0.11 0.03,-0.21 0.05,-0.32 0.01,-0.1 0.02,-0.17 0.05,-0.27 0.01,-0.11 0.02,-0.21 0.04,-0.33 0.03,-0.11 0.04,-0.2 0.05,-0.31 0.03,-0.17 0.06,-0.3 0.08,-0.46 0.02,-0.1 0.04,-0.19 0.06,-0.29 0.01,-0.11 0.02,-0.16 0.04,-0.26 0.02,-0.12 0.03,-0.22 0.05,-0.33 0.02,-0.09 0.04,-0.17 0.05,-0.25 0.03,-0.18 0.06,-0.38 0.1,-0.58 0.01,-0.05 0.03,-0.15 0.03,-0.22 0.02,-0.1 0.05,-0.24 0.07,-0.35 0.01,-0.08 0.02,-0.11 0.03,-0.19 0.07,-0.4 0.14,-0.82 0.22,-1.23 0.01,-0.03 0.02,-0.1 0.03,-0.13 0.01,-0.13 0.04,-0.28 0.07,-0.41 0.01,-0.04 0.01,-0.02 0.01,-0.05 0.08,-0.45 0.16,-0.9 0.25,-1.35 0,-0.04 0,-0.04 0.02,-0.1 28.26,-151.46 155.66,-252.01 310.09,-318.8 9.32,97.87 51.72,193.84 119.42,265.78 101.94,108.37 252.49,163.58 401.72,163.58 9.32,0 18.64,-0.21 27.93,-0.64 -18.38,66.1 -25.9,136.2 -30.68,204.93 -0.1,1.59 -0.17,3.19 -0.25,4.8 0.74,0 1.5,0 2.25,0 45.34,0 92.75,-1.46 140.32,-3.91l0 0c3.37,96.91 18.38,172.05 18.43,172.33l0 0z"/>
   <path class="fil39" d="M14425.27 4257.69c0,0 -234.62,276.04 -13.81,483.06 0,165.62 -13.79,276.03 -13.79,276.03 0,0 -579.66,-207.02 -179.43,-897.1 69.02,-138 207.03,138.01 207.03,138.01z"/>
   <path class="fil31" d="M15467.35 4257.69c0,0 234.62,276.04 13.79,483.06 0,165.62 13.81,276.03 13.81,276.03 0,0 579.66,-207.02 179.42,-897.1 -69.01,-138 -207.02,138.01 -207.02,138.01z"/>
   <polygon class="fil37" points="15267.16,6245.1 15267.15,6245.1 "/>
   <path class="fil38" d="M15487.29 6363.61c-130.93,-41.92 -219.39,-117.88 -220.13,-118.51l-0.01 0 0 0 0 0c0,0 97.72,-332.25 169.82,-536.27 3.85,-10.88 5.67,-21.96 5.68,-32.82 0.04,-43.17 -28.51,-83.18 -72.71,-95.29 -135.6,-37.19 -351.21,-94.69 -351.21,-94.69 0,0 -308.72,-64.32 -553.61,-106.04 0.35,-0.85 0.68,-1.73 1.03,-2.6l-39.34 -7.53c1.66,-23.38 7.59,-47 18.6,-56.12 12.49,-10.34 28.49,-13.33 45.01,-13.33 10.04,0 20.29,1.11 30.06,2.33 312.66,39.35 625.31,111.83 937.97,151.2 24.96,3.14 50.69,6.56 72.39,19.27 29.64,17.41 47.54,50.28 54.66,83.9 7.13,33.6 4.81,68.42 2.47,102.7 -12.44,181.69 -24.87,363.37 -37.31,545.07 -3.55,51.88 -9.26,108.66 -46.27,145.18 -5.25,5.18 -11.08,9.54 -17.1,13.55z"/>
   <path class="fil1" d="M14365.49 5713.93c-2.37,-68.08 1.01,-146.9 19.31,-218.03 -0.03,0 -0.07,0 -0.11,0 9.52,-36.98 23.05,-71.87 41.93,-102.11 0.01,0.05 0.01,0.1 0.01,0.15 3.92,-6.31 8.03,-12.45 12.44,-18.33 8.59,1.42 17.27,2.9 26.05,4.38 -40.66,104.92 -57.07,218.3 -55.71,331.39 -14.61,0.94 -29.28,1.79 -43.92,2.55z"/>
   <path class="fil40" d="M14253.79 5508.11c12.11,-43.46 28.9,-85.19 52.7,-123.71 7.15,-11.56 15.08,-22.72 23.91,-33.04l96.41 18.5c-0.57,8.23 -0.63,16.41 -0.19,23.93 -18.88,30.24 -32.41,65.13 -41.93,102.11 -35.46,2.48 -71.43,7.44 -105.36,10.47 -8.48,0.76 -17.01,1.34 -25.54,1.74z"/>
   <path class="fil41" d="M14365.43 5713.93c-2.39,-68.08 0.95,-146.89 19.26,-218.03 0.04,0 0.08,0 0.11,0 -18.3,71.13 -21.68,149.95 -19.31,218.03 -0.03,0 -0.05,0 -0.06,0z"/>
   <path class="fil42" d="M14225.11 5717.84c-0.75,0 -1.51,0 -2.25,0 0.08,-1.61 0.15,-3.21 0.25,-4.8 4.78,-68.73 12.3,-138.83 30.68,-204.93 8.53,-0.4 17.06,-0.98 25.54,-1.74 33.93,-3.03 69.9,-7.99 105.36,-10.47 -18.31,71.14 -21.65,149.95 -19.26,218.03 -47.57,2.45 -94.98,3.91 -140.32,3.91z"/>
   <path class="fil41" d="M14426.63 5393.94c0,-0.05 0,-0.1 -0.01,-0.15 3.92,-6.26 8.06,-12.34 12.45,-18.18 8.59,1.42 17.27,2.9 26.05,4.38l0 0c-8.78,-1.48 -17.46,-2.96 -26.05,-4.38 -4.41,5.88 -8.52,12.02 -12.44,18.33z"/>
   <path class="fil42" d="M14426.62 5393.79c-0.44,-7.52 -0.38,-15.7 0.19,-23.93l39.34 7.53c-0.35,0.87 -0.68,1.75 -1.03,2.6 -8.78,-1.48 -17.46,-2.96 -26.05,-4.38 -4.39,5.84 -8.53,11.92 -12.45,18.18z"/>
   <path class="fil7" d="M14397.67 4299.11c0,0 -220.84,-55.22 -303.63,-234.63 74.93,-112.41 213.44,-269.33 294.72,-358.54 41.17,-45.2 94.54,-77.23 153.79,-92.33 112.12,-28.58 290.01,-73.59 308.85,-73.59 41.4,82.81 247.68,110.39 316.69,27.59 79.83,-7.98 189.86,20.99 266.33,46.83 59.32,20.04 111.21,57.4 149.05,107.27l249.54 328.98c0,0 -82.8,179.41 -345.03,220.81 -13.81,276.03 -13.81,676.27 -13.81,676.27l-1090.31 -13.81 13.81 -634.85z"/>
   <path class="fil43" d="M15071.72 4278.39l-640.24 0 0 -58.77c157.84,1.92 315.69,2.86 473.56,2.86 36.68,0 73.36,-0.05 110.04,-0.15 18.17,19.35 37.13,37.96 56.64,56.06zm-652.66 0l-81.12 0c-31.77,-13.12 -72.49,-33.12 -112.82,-61.8 64.66,1.12 129.27,2.08 193.94,2.88l0 58.92z"/>
   <path class="fil44" d="M14388.76 3705.94c40.36,-44.34 92.47,-75.98 150.33,-91.43 -57.86,15.45 -109.97,47.11 -150.33,91.43z"/>
   <path class="fil43" d="M14902.43 4197.66c-138.95,0 -277.8,-0.75 -416.75,-2.24 -18.44,-0.2 -36.89,-0.39 -55.34,-0.62 -1.12,-1.6 -2.98,-2.64 -5.07,-2.64 -2.03,0 -3.86,0.99 -4.98,2.5 -75.96,-0.94 -151.89,-2.1 -227.84,-3.49 -38.6,-32.86 -74.34,-74.52 -98.41,-126.69 74.93,-112.41 213.44,-269.33 294.72,-358.54l0 0c40.36,-44.32 92.47,-75.98 150.33,-91.43 1.15,-0.3 2.31,-0.6 3.46,-0.9 71.83,-18.3 170.48,-43.3 237.2,-58.96 -0.14,163.24 28.18,327.75 98.78,471.71 -130.98,-0.07 -261.87,-0.81 -392.85,-2.22 -119.83,-1.29 -239.64,-3.13 -359.45,-5.53 -6.1,8.31 -11.96,16.49 -17.57,24.49 260.81,5.3 521.71,8 782.57,8.1 17.87,33.48 38.15,65.74 61.04,96.5 12.79,17.2 26.28,33.78 40.34,49.86 -30.07,0.07 -60.11,0.1 -90.18,0.1z"/>
   <path class="fil29" d="M14730.73 2918.23c13.79,-0.5 244.34,-119.15 304.01,-383.67 18.2,123.66 146.73,243.37 327.99,292.17 181.27,48.82 212.77,158.19 213.75,185.76 7.91,-166 0.58,-372.89 -70.35,-425.62 -70.91,-52.73 -172.86,-201 -474.81,-148.86 -178.34,33.95 -334.55,301.9 -314.39,480.71l13.8 -0.49z"/>
   <path class="fil29" d="M15575.65 2875.42c16.2,41.68 27.56,84.56 36.1,128.31 8.1,43.8 12.92,88.71 8.58,135.01 -2,22.87 -7.52,47.51 -16.88,68.28 -8.79,21.2 -19.87,40.19 -29.72,59.15 -19.82,36.97 -36.73,77.24 -28.09,119.6l-4.72 1.54c-8.97,-20.55 -10.73,-44.11 -8.05,-66.54 2.5,-22.52 8.86,-44.57 16.3,-65.28 7.4,-20.73 15.13,-40.82 20.95,-60.42 5.96,-19.83 8.2,-38.26 8.39,-58.61 0.02,-40.34 -7.37,-81.93 -15.63,-123 -8.74,-41.11 -19.84,-82.08 -32.22,-122.17l44.99 -15.87z"/>
   <path class="fil31" d="M14780.19 2972.5c17.68,62.33 -3.67,122.97 -47.67,135.44 -44.02,12.45 -94,-27.97 -111.67,-90.3 -17.65,-62.33 3.69,-122.98 47.69,-135.45 44,-12.45 94,27.96 111.65,90.31z"/>
   <path class="fil45" d="M14246.38 3867.77l1126.26 -10.46 311.48 -2.91 -18.71 -24.67 -1144.93 10.66 -252.79 2.35c-7.08,8.26 -14.19,16.61 -21.31,25.03z"/>
   <path class="fil45" d="M14399.02 3695.19l973.62 -9.04 177.6 -1.65c-9.21,-8.79 -18.92,-17 -29.1,-24.58l-1000.66 9.3 -93.05 0.87c-9.94,7.76 -19.43,16.14 -28.41,25.1z"/>
   <path class="fil45" d="M14108.67 4043.09c453.81,9.22 907.77,10.6 1361.62,4.02 118.31,-1.72 236.6,-3.99 354.86,-6.78l-18.51 -24.42c-440.24,10.16 -880.63,12.94 -1320.96,8.23 -119.81,-1.29 -239.63,-3.14 -359.44,-5.53 -6.09,8.31 -11.96,16.48 -17.57,24.48z"/>
   <path class="fil45" d="M14225.14 4216.59c415.01,7.2 830.13,7.82 1245.15,1.8 63.56,-0.93 127.12,-2.01 190.66,-3.24 15.46,-8.22 29.67,-16.86 42.76,-25.71 -405.95,8.31 -812.02,10.35 -1218.03,5.98 -97.74,-1.05 -195.48,-2.47 -293.21,-4.25 10.73,9.14 21.68,17.6 32.67,25.42z"/>
   <path class="fil46" d="M15490.9 4278.39l-3.27 0c0.12,-2.3 0.23,-4.6 0.35,-6.89 1.39,-0.22 2.75,-0.45 4.14,-0.66 -0.21,1.41 -0.45,2.81 -0.66,4.22 -0.18,1.11 -0.39,2.22 -0.56,3.33z"/>
   <path class="fil47" d="M15487.63 4278.39l-9.34 0c0.32,-1.77 0.61,-3.54 0.89,-5.32 2.97,-18.15 4.49,-36.5 4.67,-54.88 4.13,-0.06 8.29,-0.13 12.43,-0.18 -0.15,17.65 -1.53,35.32 -4.16,52.83 -1.39,0.21 -2.75,0.44 -4.14,0.66 -0.12,2.29 -0.23,4.59 -0.35,6.89zm-4.37 -85.05c-2.86,-50.43 -15.85,-100.34 -37.78,-145.88 4.56,-0.07 9.1,-0.13 13.65,-0.2 21.21,45.75 33.75,95.55 36.55,145.89 -4.14,0.07 -8.28,0.12 -12.42,0.19zm-50.77 -170.56c-13.68,-23.83 -29.94,-46.12 -48.59,-66.29 -2.32,-2.51 -2.17,-6.46 0.35,-8.78 1.2,-1.1 2.71,-1.65 4.22,-1.65 1.67,0 3.33,0.68 4.55,2 20.85,22.58 38.8,47.68 53.61,74.52 -4.72,0.07 -9.42,0.13 -14.14,0.2z"/>
   <path class="fil7" d="M15445.48 4047.46c-4.02,-8.38 -8.36,-16.63 -12.99,-24.68 4.72,-0.07 9.42,-0.13 14.14,-0.2 4.45,8.09 8.63,16.31 12.5,24.68 -4.55,0.07 -9.09,0.13 -13.65,0.2z"/>
   <path class="fil7" d="M15483.85 4218.19c0,-1.16 0.02,-2.32 0.02,-3.48 0,-7.13 -0.21,-14.25 -0.61,-21.37 4.14,-0.07 8.28,-0.12 12.42,-0.19 0.4,7.18 0.6,14.38 0.61,21.56 0,1.1 -0.01,2.19 -0.01,3.3 -4.14,0.05 -8.3,0.12 -12.43,0.18z"/>
   <path class="fil48" d="M14431.48 4278.39l-12.42 0 0 -58.92c4.13,0.05 8.28,0.1 12.42,0.15l0 58.77z"/>
   <path class="fil48" d="M14430.34 4194.8c-3.34,-0.06 -6.7,-0.09 -10.05,-0.14 1.12,-1.51 2.95,-2.5 4.98,-2.5 2.09,0 3.95,1.04 5.07,2.64z"/>
   <path class="fil7" d="M14431.48 4219.62c-4.14,-0.05 -8.29,-0.1 -12.42,-0.15l0 -21.1c0,-1.37 0.45,-2.66 1.23,-3.71 3.35,0.05 6.71,0.08 10.05,0.14 0.71,1 1.14,2.24 1.14,3.57l0 21.25z"/>
   <path class="fil29" d="M15008.29 2956.7c0.95,26.68 -10.64,48.72 -25.88,49.26 -15.23,0.55 -28.35,-20.63 -29.29,-47.29 -0.95,-26.67 10.63,-48.72 25.86,-49.25 15.26,-0.55 28.37,20.63 29.31,47.28z"/>
   <path class="fil29" d="M15374.05 2950.62c0.94,26.68 -10.64,48.72 -25.87,49.27 -15.24,0.54 -28.37,-20.64 -29.31,-47.3 -0.95,-26.66 10.64,-48.72 25.88,-49.25 15.23,-0.55 28.35,20.62 29.3,47.28z"/>
   <path class="fil45" d="M14843.02 2969.48l16.55 -0.59c-0.05,-1.65 -0.09,-3.27 -0.09,-4.89 -0.01,-72.45 57.45,-132.5 130.46,-135.07 1.65,-0.06 3.27,-0.1 4.91,-0.1 72.45,0 132.5,57.45 135.06,130.47 0.07,1.64 0.09,3.26 0.09,4.88 0.01,72.45 -57.45,132.52 -130.45,135.09 -1.64,0.06 -3.28,0.08 -4.9,0.08 -72.45,0.01 -132.5,-57.45 -135.08,-130.46l-16.55 0.59 -16.54 0.58c3.25,90.92 77.9,162.41 168.17,162.41 2.02,0 4.04,-0.03 6.08,-0.1 90.9,-3.25 162.39,-77.92 162.39,-168.19 0,-2.02 -0.04,-4.02 -0.1,-6.06 -3.25,-90.9 -77.92,-162.39 -168.17,-162.4 -2.02,0 -4.06,0.03 -6.08,0.11 -90.9,3.25 -162.39,77.9 -162.41,168.17 0,2.02 0.04,4.04 0.12,6.06l16.54 -0.58z"/>
   <path class="fil45" d="M15229.22 2955.77l16.55 -0.59c-0.05,-1.65 -0.08,-3.27 -0.08,-4.89 -0.02,-72.45 57.45,-132.5 130.46,-135.08 1.64,-0.05 3.26,-0.09 4.88,-0.09 72.45,0 132.5,57.45 135.08,130.47 0.06,1.63 0.09,3.28 0.09,4.9 0,72.45 -57.45,132.48 -130.46,135.06 -1.64,0.05 -3.28,0.09 -4.91,0.09 -72.43,0.01 -132.5,-57.45 -135.06,-130.46l-16.55 0.59 -16.56 0.58c3.25,90.92 77.92,162.41 168.17,162.41 2.02,0 4.05,-0.04 6.08,-0.1 90.9,-3.27 162.39,-77.9 162.41,-168.17 0,-2.02 -0.03,-4.04 -0.12,-6.08 -3.24,-90.9 -77.9,-162.39 -168.17,-162.41 -2.02,0 -4.04,0.04 -6.06,0.12 -90.91,3.25 -162.41,77.9 -162.41,168.17 0,2.02 0.04,4.04 0.1,6.06l16.56 -0.58z"/>
   <path class="fil29" d="M15304.49 2786.84l0.3 -0.27c3.59,-3.21 38.6,-31.56 83.05,-31.39 21.83,0.04 46.07,6.47 71.56,26.16 3.61,2.8 8.81,2.14 11.61,-1.47 2.81,-3.61 2.15,-8.81 -1.46,-11.63 -28.15,-21.86 -56.54,-29.66 -81.71,-29.62 -54.9,0.21 -93.68,35.4 -94.39,35.88 -3.42,3.05 -3.71,8.28 -0.65,11.69 3.05,3.41 8.28,3.7 11.69,0.65z"/>
   <path class="fil29" d="M14890.7 2801.53l0.3 -0.26c3.61,-3.22 38.6,-31.57 83.05,-31.4 21.82,0.04 46.08,6.47 71.57,26.16 3.61,2.8 8.81,2.14 11.61,-1.47 2.8,-3.61 2.14,-8.81 -1.47,-11.61 -28.14,-21.88 -56.54,-29.68 -81.71,-29.65 -54.9,0.22 -93.68,35.41 -94.4,35.89 -3.4,3.05 -3.69,8.28 -0.64,11.69 3.05,3.41 8.28,3.69 11.69,0.65z"/>
   <path class="fil29" d="M15085.35 3179.8c0.26,0.48 9.74,19.07 28.95,37.97 19.14,18.81 48.6,38.19 87.95,38.19 24.34,0 52.08,-7.47 82.77,-26.15 3.91,-2.39 5.15,-7.48 2.76,-11.38 -2.37,-3.91 -7.47,-5.15 -11.37,-2.78 -28.64,17.42 -53.23,23.73 -74.16,23.75 -33.67,0 -58.99,-16.46 -76.35,-33.45 -8.64,-8.48 -15.16,-17.01 -19.49,-23.37 -2.17,-3.2 -3.77,-5.83 -4.83,-7.63l-1.16 -2.07 -0.32 -0.6c-2.08,-4.07 -7.06,-5.7 -11.14,-3.63 -4.07,2.09 -5.7,7.08 -3.61,11.15z"/>
   <path class="fil29" d="M15053.82 3176.57c0.71,0.3 8.03,3.58 19.14,3.61 12.36,0.1 29.56,-4.51 45.05,-21.26 3.11,-3.35 2.93,-8.58 -0.43,-11.7 -3.35,-3.11 -8.58,-2.93 -11.7,0.42 -12.56,13.36 -24.24,15.88 -32.92,15.98 -3.87,0 -7.1,-0.6 -9.29,-1.18l-2.45 -0.74 -0.51 -0.2 -0.02 0c-4.16,-1.9 -9.06,-0.07 -10.96,4.09 -1.91,4.17 -0.07,9.07 4.09,10.98z"/>
   <polygon class="fil45" points="15146.55,2946.94 15229.97,2946.94 15229.97,2913.82 15146.55,2913.82 "/>
   <path class="fil49" d="M15471.88 5196.19l-1104.12 0c-34.3,0 -62.1,-27.8 -62.1,-62.1 0,-34.29 27.8,-62.12 62.1,-62.12l1104.12 0c34.3,0 62.1,27.83 62.1,62.12 0,34.3 -27.8,62.1 -62.1,62.1z"/>
   <path class="fil50" d="M15471.88 5071.97l-1117.91 0 -126.21 -725.63c-6.18,-35.47 21.13,-67.95 57.13,-67.95l1268.67 0c36.4,0 63.79,33.15 56.95,68.89l-138.63 724.69z"/>
   <path class="fil49" d="M14837.01 4685.54c0,-45.74 37.08,-82.8 82.8,-82.8 45.74,0 82.82,37.06 82.82,82.8 0,45.74 -37.08,82.8 -82.82,82.8 -45.72,0 -82.8,-37.06 -82.8,-82.8z"/>
   <path class="fil51" d="M15467.35 5071.97l-1113.38 0 -126.21 -725.63c-0.6,-3.4 -0.88,-6.78 -0.88,-10.09 0.02,-31.3 25.46,-57.86 58.01,-57.86l84.05 0c269.25,372.16 660.57,654.74 1098.41,793.58z"/>
   <path class="fil52" d="M15472.13 5196.19c0.02,0 0.04,0 0.05,0 -0.01,0 -0.03,0 -0.05,0zm0.28 0c0,0 0.02,0 0.04,0 -0.02,0 -0.04,0 -0.04,0z"/>
   <path class="fil53" d="M15471.88 5196.19l-1104.12 0c-34.3,0 -62.1,-27.8 -62.1,-62.1 0,-34.29 27.8,-62.12 62.1,-62.12l550.68 0c127.61,48.32 263.97,73.63 400.41,73.63 29.58,0 59.17,-1.19 88.66,-3.59 15.04,-1.21 30.36,-2.72 45.48,-2.72 15.66,0 31.11,1.61 45.87,6.79 10.12,3.53 19.66,9.49 27.7,16.86 -10.34,19.53 -30.53,33.04 -54.11,33.25 -0.02,0 -0.04,0 -0.04,0 -0.08,0 -0.15,0 -0.23,0 -0.01,0 -0.03,0 -0.05,0 -0.08,0 -0.17,0 -0.25,0l0 0z"/>
   <path class="fil29" d="M15309.39 2397.62c39.28,-14.72 69.34,-45.67 87.84,-82.9 21.88,-44.06 27.6,-93.53 31.63,-141.92 1.31,-15.93 -23.53,-15.85 -24.84,0 -6.15,73.89 -21.33,170.92 -101.22,200.86 -14.84,5.56 -8.41,29.59 6.59,23.96z"/>
   <path class="fil29" d="M14845.57 2240.17c-40.37,-79.61 -26.01,-176.29 35.33,-240.94 10.99,-11.61 -6.55,-29.19 -17.57,-17.57 -69.31,73.06 -84.71,181.3 -39.22,271.04 7.24,14.28 28.68,1.71 21.46,-12.53z"/>
   <path class="fil29" d="M14802.93 2853.24c-32.26,36.97 -39.12,81.1 -35.7,123.2 4.16,42.51 13.14,88.31 25.35,136.12 5.85,23.88 11.29,48.56 13.68,74.04 2.55,25.47 1.18,51.74 -3.71,76.46 -10.55,49.63 -31.58,94.18 -53.41,137.49l-4.58 -1.88c14.54,-46.22 30.17,-92.49 33.4,-139.1 4.92,-46.49 -7.03,-90.65 -23.45,-135.61 -8.15,-22.47 -17.26,-45.26 -25.26,-69.39 -7.71,-24.11 -12.76,-50.28 -11.7,-77.37 1.17,-27 7.98,-54.87 22.12,-78.21 13.76,-23.39 35.49,-43.19 60.68,-49.98l2.58 4.23z"/>
   <path class="fil45" d="M15197.25 2051.4c38.25,22.05 66.29,61.72 77.72,105.39 11.26,43.71 6,92.04 -16.76,129.88 10.3,-42.53 11.27,-85.32 0.74,-125.73 -10.38,-40.45 -32.03,-77.4 -61.7,-109.54z"/>
   <path class="fil45" d="M15133.39 2515.45c20.32,40.34 43.44,77.62 71.89,111 28.15,33.64 60.99,62.68 97.31,89.54 -42.73,-15.31 -80.39,-44.06 -109.96,-78.87 -29.31,-35.05 -51.29,-76.99 -59.24,-121.67z"/>
   <path class="fil45" d="M15218.16 2255.93c-0.94,-18.69 -0.71,-35.01 -2.03,-51.68 -0.95,-16.73 -3.33,-32.82 -4.86,-51.5 13.57,13.23 19.96,31.93 21.37,50.39 1.01,18.5 -2.83,37.86 -14.48,52.79z"/>
   <path class="fil54" d="M21813.49 2177.5l-616.82 0 0 675.22 -563.06 0 0 -1801.48 1363.8 0 0 429.44 -800.74 0 0 291.69 616.82 0 0 405.13zm947.41 -1126.26l0 1801.48 -580.05 0 0 -1801.48 580.05 0zm1338.33 1810.03c-64.61,12.16 -128.27,18.46 -190.99,18.46 -272.57,0 -491.38,-85.53 -656.43,-257.03 -165.53,-171.51 -248.06,-393.43 -248.06,-666.22 0,-271.44 80.18,-494.71 240.04,-669.81 159.87,-175.11 381.98,-262.44 665.86,-262.44 262.67,0 477.24,82.83 642.76,248.03 165.53,165.2 248.06,385.78 248.06,661.71 0,335.36 -112.72,590.59 -338.13,766.6 18.4,52.67 76.87,79.23 175.9,79.23 44.33,0 96.68,-5.86 156.57,-17.11l0 407.83c-102.34,9.46 -182.5,14.41 -240.51,14.41 -103.27,0 -195.23,-20.71 -275.87,-61.67 -80.64,-40.97 -140.54,-128.29 -179.2,-261.99zm-197.59 -389.37c98.09,0 168.82,-40.97 211.74,-122.44 42.91,-81.48 64.61,-230.48 64.61,-447 0,-313.75 -88.66,-470.4 -265.51,-470.4 -190.98,0 -286.24,178.71 -286.24,536.58 0,335.35 91.95,503.26 275.4,503.26zm2672.89 -1420.66l0 1192.43c0,225.98 -70.26,388.48 -210.79,487.51 -140.54,99.03 -323.97,148.55 -549.86,148.55 -238.15,0 -429.13,-47.72 -573.44,-142.7 -144.3,-94.98 -216.46,-249.38 -216.46,-464.1l0 -1221.69 588.54 0 0 1156.42c0,86.43 19.33,149 57.53,188.61 38.19,39.62 99.5,59.42 183.44,59.42 69.79,0 127.33,-14.4 172.12,-42.76 44.81,-28.81 71.68,-60.77 80.18,-97.23 8.96,-36.01 13.2,-106.24 13.2,-210.67l0 -1053.79 455.54 0zm1728.34 1372.04l0 429.44 -1420.39 0 0 -1801.48 1420.39 0 0 415.93 -851.67 0 0 261.99 687.56 0 0 399.73 -687.56 0 0 294.39 851.67 0z"/>
   <path class="fil54" d="M22673.26 4036.66l0 267.91 -886.14 0 0 -1123.89 886.14 0 0 259.49 -531.33 0 0 163.44 428.95 0 0 249.38 -428.95 0 0 183.67 531.33 0zm1421.88 -855.98l0 1123.89 -335.39 0 0 -803.74 -219.18 803.74 -229.19 0 -225.94 -803.74 0 803.74 -270.08 0 0 -1123.89 471.02 0 170.64 597.05 162.99 -597.05 475.13 0z"/>
   <path class="fil54" d="M23234.23 6334.97l895.8 44.72c-42.32,326.4 -186.84,576.71 -433.54,750.92 -246.7,174.22 -550.09,261.66 -910.16,261.66 -433.53,0 -783.23,-120.15 -1049.09,-359.78 -266.67,-239.62 -400,-571.36 -400,-993.22 0,-418.51 126.15,-756.26 378.44,-1013.24 252.29,-256.98 604.38,-385.14 1056.27,-385.14 422.35,0 747.3,97.45 974.05,292.36 225.94,194.9 354.48,453.89 384.03,775.62l-914.96 41.38c0,-178.22 -40.73,-306.37 -122.16,-385.81 -81.43,-79.43 -178.04,-118.81 -288.22,-118.81 -307.38,0 -461.47,259.65 -461.47,779.63 0,291.02 39.92,489.26 119.75,593.39 80.64,104.8 193.22,156.86 337.73,156.86 257.88,0 402.38,-146.85 433.53,-440.54zm2969.22 1017.25l-176.45 -524.64 -869.45 0 -188.42 524.64 -795.19 0 988.41 -2671.28 1036.31 0 1005.18 2671.28 -1000.39 0zm-867.85 -1109.36l510.97 0 -256.28 -773.62 -254.69 773.62zm1826.72 333.07l910.17 -136.83c76.64,216.26 272.25,324.4 589.22,324.4 245.9,0 368.85,-54.74 368.85,-164.2 0,-57.41 -28.74,-102.13 -85.43,-133.5 -56.69,-32.04 -158.08,-60.74 -304.99,-84.77 -558.87,-89.45 -918.15,-206.92 -1077.03,-351.1 -158.88,-144.85 -237.92,-315.05 -237.92,-510.63 0,-251.64 114.17,-461.23 342.51,-628.1 228.35,-166.88 556.48,-250.31 985.22,-250.31 649.9,0 1078.63,218.27 1287.81,655.47l-809.57 205.59c-84.64,-178.89 -255.49,-268.33 -512.57,-268.33 -213.96,0 -320.96,55.4 -320.96,166.2 0,49.4 23.96,88.11 72.65,115.48 47.91,27.36 141.33,52.73 280.24,77.43 382.44,66.08 653.89,124.82 814.37,176.21 160.47,50.73 294.6,139.51 401.59,266.33 106.99,126.15 160.48,275 160.48,446.55 0,270.33 -130.94,489.93 -392.82,658.14 -261.87,168.21 -605.98,252.31 -1031.52,252.31 -777.63,0 -1258.27,-272.34 -1440.3,-816.34zm4973.2 776.29l-176.46 -524.64 -869.44 0 -188.43 524.64 -795.19 0 988.41 -2671.28 1036.31 0 1005.18 2671.28 -1000.38 0zm-867.86 -1109.36l510.97 0 -256.28 -773.62 -254.69 773.62z"/>
   <path class="fil54" d="M2864.07 2683.09l537.59 -92.28c45.27,145.85 160.81,218.77 348.02,218.77 145.24,0 217.88,-36.91 217.88,-110.73 0,-38.71 -16.99,-68.87 -50.47,-90.03 -33.48,-21.61 -93.37,-40.96 -180.13,-57.17 -330.11,-60.32 -542.32,-139.54 -636.17,-236.77 -93.84,-97.69 -140.52,-212.47 -140.52,-344.36 0,-169.71 67.43,-311.05 202.3,-423.59 134.87,-112.53 328.69,-168.8 581.93,-168.8 383.85,0 637.09,147.19 760.65,442.04l-478.19 138.64c-49.98,-120.64 -150.89,-180.95 -302.74,-180.95 -126.39,0 -189.58,37.36 -189.58,112.08 0,33.31 14.15,59.42 42.92,77.88 28.3,18.45 83.46,35.56 165.52,52.21 225.89,44.57 386.23,84.18 481,118.84 94.79,34.21 174.02,94.08 237.21,179.61 63.2,85.07 94.78,185.46 94.78,301.14 0,182.31 -77.33,330.41 -232.01,443.84 -154.67,113.44 -357.92,170.16 -609.27,170.16 -459.32,0 -743.21,-183.66 -850.72,-550.53zm2937.43 523.52l-104.22 -353.81 -513.54 0 -111.29 353.81 -469.7 0 583.81 -1801.47 612.11 0 593.71 1801.47 -590.88 0zm-512.6 -748.14l301.8 0 -151.37 -521.71 -150.43 521.71zm2598.37 305.2l0 442.94 -1324.18 0 0 -1801.47 580.04 0 0 1358.53 744.14 0zm1668.44 -1358.53l-585.7 1801.47 -589.94 0 -614 -1801.47 609.75 0 299.92 979.51c20.29,58.07 38.67,114.78 54.24,171.05l349.43 -1150.56 476.3 0zm1592.5 1372.03l0 429.44 -1420.38 0 0 -1801.47 1420.38 0 0 415.93 -851.67 0 0 261.98 687.56 0 0 399.73 -687.56 0 0 294.39 851.67 0z"/>
   <path class="fil54" d="M2696 3815.58l-829.01 2671.28 -835.03 0 -869.06 -2671.28 863.06 0 424.52 1452.45c28.7,86.11 54.73,170.21 76.76,253.65l494.6 -1706.1 674.16 0zm1064.64 0l0 2671.28 -821.01 0 0 -2671.28 821.01 0zm463.9 2671.28l0 -2671.28 1032.6 0c449.22,0 784.97,132.83 1007.91,399.16 222.94,266.33 334.41,574.04 334.41,923.8 0,399.16 -119.48,723.55 -359.11,973.86 -238.96,249.64 -550.01,374.46 -931.81,374.46l-1084 0zm821.01 -612.75l213.6 0c135.5,0 250.3,-66.08 343.08,-198.24 93.45,-132.17 140.18,-311.72 140.18,-539.33 0,-194.91 -41.39,-363.11 -124.16,-504.62 -82.76,-140.84 -202.91,-211.59 -359.1,-211.59l-213.6 0 0 1453.78zm3286.69 612.75l-147.51 -524.64 -726.89 0 -157.53 524.64 -664.81 0 826.34 -2671.28 866.4 0 840.36 2671.28 -836.36 0zm-725.55 -1109.36l427.19 0 -214.26 -773.62 -212.93 773.62zm1527.21 333.07l760.93 -136.83c64.08,216.27 227.61,324.4 492.6,324.4 205.59,0 308.38,-54.74 308.38,-164.2 0,-57.41 -24.03,-102.13 -71.42,-133.5 -47.39,-32.04 -132.16,-60.74 -254.98,-84.77 -467.24,-89.44 -767.61,-206.92 -900.44,-351.1 -132.83,-144.84 -198.91,-315.05 -198.91,-510.62 0,-251.65 95.45,-461.24 286.35,-628.11 190.9,-166.87 465.24,-250.3 823.68,-250.3 543.33,0 901.77,218.26 1076.65,655.47l-676.83 205.58c-70.75,-178.88 -213.59,-268.33 -428.52,-268.33 -178.89,0 -268.33,55.4 -268.33,166.21 0,49.39 20.02,88.1 60.74,115.47 40.05,27.37 118.15,52.73 234.29,77.43 319.72,66.08 546.67,124.82 680.83,176.22 134.17,50.72 246.3,139.5 335.75,266.32 89.44,126.16 134.16,275.01 134.16,446.55 0,270.33 -109.47,489.93 -328.4,658.14 -218.94,168.21 -506.62,252.31 -862.39,252.31 -650.13,0 -1051.96,-272.33 -1204.14,-816.34z"/>
  </g>
 </g>
</svg>
